<?xml version="1.0" encoding="UTF-8"?>
<!DOCTYPE svg PUBLIC "-//W3C//DTD SVG 1.1//EN" "http://www.w3.org/Graphics/SVG/1.1/DTD/svg11.dtd">
<svg xmlns="http://www.w3.org/2000/svg" version="1.1" width="1279px" height="695px" style="shape-rendering:geometricPrecision; text-rendering:geometricPrecision; image-rendering:optimizeQuality; fill-rule:evenodd; clip-rule:evenodd" xmlns:xlink="http://www.w3.org/1999/xlink">
<g><path style="opacity:1" fill="#020205" d="M -0.5,-0.5 C 425.833,-0.5 852.167,-0.5 1278.5,-0.5C 1278.5,231.167 1278.5,462.833 1278.5,694.5C 1149.5,694.5 1020.5,694.5 891.5,694.5C 891.5,656.167 891.5,617.833 891.5,579.5C 891.5,549.5 891.5,519.5 891.5,489.5C 891.5,390.167 891.5,290.833 891.5,191.5C 847.833,191.5 804.167,191.5 760.5,191.5C 690.833,191.5 621.167,191.5 551.5,191.5C 540.5,191.5 529.5,191.5 518.5,191.5C 483.5,191.5 448.5,191.5 413.5,191.5C 385.5,191.5 357.5,191.5 329.5,191.5C 290.5,191.5 251.5,191.5 212.5,191.5C 167.499,191.333 122.499,191.5 77.5,192C 70.1846,218.077 64.8512,244.577 61.5,271.5C 55.5,271.5 49.5,271.5 43.5,271.5C 43.5,314.167 43.5,356.833 43.5,399.5C 28.8333,399.5 14.1667,399.5 -0.5,399.5C -0.5,266.167 -0.5,132.833 -0.5,-0.5 Z"/></g>
<g><path style="opacity:1" fill="#05040a" d="M 212.5,191.5 C 203.579,217.598 196.912,244.265 192.5,271.5C 191.5,271.5 190.5,271.5 189.5,271.5C 169.833,271.5 150.167,271.5 130.5,271.5C 110.833,271.5 91.1667,271.5 71.5,271.5C 68.1667,271.5 64.8333,271.5 61.5,271.5C 64.8512,244.577 70.1846,218.077 77.5,192C 122.499,191.5 167.499,191.333 212.5,191.5 Z"/></g>
<g><path style="opacity:1" fill="#090710" d="M 212.5,191.5 C 251.5,191.5 290.5,191.5 329.5,191.5C 327.714,197.072 325.381,202.405 322.5,207.5C 303.833,207.5 285.167,207.5 266.5,207.5C 256.167,207.5 245.833,207.5 235.5,207.5C 235.5,228.833 235.5,250.167 235.5,271.5C 221.167,271.5 206.833,271.5 192.5,271.5C 196.912,244.265 203.579,217.598 212.5,191.5 Z"/></g>
<g><path style="opacity:1" fill="#0d0b17" d="M 329.5,191.5 C 357.5,191.5 385.5,191.5 413.5,191.5C 407.492,201.838 401.492,212.172 395.5,222.5C 395.5,218.167 395.5,213.833 395.5,209.5C 374.192,207.511 352.526,206.844 330.5,207.5C 327.833,207.5 325.167,207.5 322.5,207.5C 325.381,202.405 327.714,197.072 329.5,191.5 Z"/></g>
<g><path style="opacity:1" fill="#110e1c" d="M 413.5,191.5 C 448.5,191.5 483.5,191.5 518.5,191.5C 463.903,237.737 440.07,296.737 447,368.5C 448.466,378.998 450.633,389.331 453.5,399.5C 441.5,399.5 429.5,399.5 417.5,399.5C 410.167,399.5 402.833,399.5 395.5,399.5C 395.5,340.5 395.5,281.5 395.5,222.5C 401.492,212.172 407.492,201.838 413.5,191.5 Z"/></g>
<g><path style="opacity:1" fill="#130f1e" d="M 518.5,191.5 C 529.5,191.5 540.5,191.5 551.5,191.5C 487.183,232.81 458.683,291.81 466,368.5C 467.425,379.134 469.925,389.467 473.5,399.5C 466.833,399.5 460.167,399.5 453.5,399.5C 450.633,389.331 448.466,378.998 447,368.5C 440.07,296.737 463.903,237.737 518.5,191.5 Z"/></g>
<g><path style="opacity:1" fill="#141021" d="M 551.5,191.5 C 621.167,191.5 690.833,191.5 760.5,191.5C 766.739,196.139 772.406,201.472 777.5,207.5C 766.167,207.5 754.833,207.5 743.5,207.5C 680.833,207.5 618.167,207.5 555.5,207.5C 555.5,218.5 555.5,229.5 555.5,240.5C 555.5,293.5 555.5,346.5 555.5,399.5C 538.167,399.5 520.833,399.5 503.5,399.5C 493.5,399.5 483.5,399.5 473.5,399.5C 469.925,389.467 467.425,379.134 466,368.5C 458.683,291.81 487.183,232.81 551.5,191.5 Z"/></g>
<g><path style="opacity:1" fill="#100d1b" d="M 760.5,191.5 C 804.167,191.5 847.833,191.5 891.5,191.5C 891.5,290.833 891.5,390.167 891.5,489.5C 878.16,511.52 862.16,531.52 843.5,549.5C 843.5,537.167 843.5,524.833 843.5,512.5C 843.5,410.833 843.5,309.167 843.5,207.5C 821.5,207.5 799.5,207.5 777.5,207.5C 772.406,201.472 766.739,196.139 760.5,191.5 Z"/></g>
<g><path style="opacity:1" fill="#7e7a8b" d="M 266.5,207.5 C 285.167,207.5 303.833,207.5 322.5,207.5C 325.167,207.5 327.833,207.5 330.5,207.5C 329.833,208.833 329.167,210.167 328.5,211.5C 321.833,211.5 315.167,211.5 308.5,211.5C 294.167,211.5 279.833,211.5 265.5,211.5C 266.234,210.292 266.567,208.959 266.5,207.5 Z"/></g>
<g><path style="opacity:1" fill="#9793a4" d="M 330.5,207.5 C 352.526,206.844 374.192,207.511 395.5,209.5C 394.167,211.5 392.833,213.5 391.5,215.5C 391.5,214.167 391.5,212.833 391.5,211.5C 383.5,211.5 375.5,211.5 367.5,211.5C 354.5,211.5 341.5,211.5 328.5,211.5C 329.167,210.167 329.833,208.833 330.5,207.5 Z"/></g>
<g><path style="opacity:1" fill="#dad6e7" d="M 743.5,207.5 C 744.5,208.833 745.5,210.167 746.5,211.5C 736.167,211.5 725.833,211.5 715.5,211.5C 707.5,211.5 699.5,211.5 691.5,211.5C 647.5,211.5 603.5,211.5 559.5,211.5C 559.5,220.167 559.5,228.833 559.5,237.5C 558.167,238.5 556.833,239.5 555.5,240.5C 555.5,229.5 555.5,218.5 555.5,207.5C 618.167,207.5 680.833,207.5 743.5,207.5 Z"/></g>
<g><path style="opacity:1" fill="#111222" d="M 265.5,211.5 C 279.833,211.5 294.167,211.5 308.5,211.5C 303.506,223.149 299.506,235.149 296.5,247.5C 292.167,247.5 287.833,247.5 283.5,247.5C 270.167,247.5 256.833,247.5 243.5,247.5C 243.5,268.833 243.5,290.167 243.5,311.5C 239.833,311.5 236.167,311.5 232.5,311.5C 233.669,299.481 235.002,287.481 236.5,275.5C 237.5,275.5 238.5,275.5 239.5,275.5C 239.5,254.167 239.5,232.833 239.5,211.5C 248.167,211.5 256.833,211.5 265.5,211.5 Z"/></g>
<g><path style="opacity:1" fill="#141628" d="M 308.5,211.5 C 315.167,211.5 321.833,211.5 328.5,211.5C 341.5,211.5 354.5,211.5 367.5,211.5C 361.948,223.271 356.948,235.271 352.5,247.5C 333.833,247.5 315.167,247.5 296.5,247.5C 299.506,235.149 303.506,223.149 308.5,211.5 Z"/></g>
<g><path style="opacity:1" fill="#4c587b" d="M 691.5,211.5 C 699.5,211.5 707.5,211.5 715.5,211.5C 715.5,212.833 715.5,214.167 715.5,215.5C 707.5,215.5 699.5,215.5 691.5,215.5C 691.5,214.167 691.5,212.833 691.5,211.5 Z"/></g>
<g><path style="opacity:1" fill="#1f223b" d="M 715.5,211.5 C 725.833,211.5 736.167,211.5 746.5,211.5C 756.167,211.5 765.833,211.5 775.5,211.5C 786.039,222.369 795.039,234.369 802.5,247.5C 796.167,247.5 789.833,247.5 783.5,247.5C 768.5,247.5 753.5,247.5 738.5,247.5C 733.5,247.5 728.5,247.5 723.5,247.5C 723.5,238.167 723.5,228.833 723.5,219.5C 722.167,219.5 720.833,219.5 719.5,219.5C 719.5,218.167 719.5,216.833 719.5,215.5C 718.167,215.5 716.833,215.5 715.5,215.5C 715.5,214.167 715.5,212.833 715.5,211.5 Z"/></g>
<g><path style="opacity:1" fill="#1b1e35" d="M 775.5,211.5 C 796.833,211.5 818.167,211.5 839.5,211.5C 839.5,313.167 839.5,414.833 839.5,516.5C 839.5,534.5 839.5,552.5 839.5,570.5C 838.167,571.5 836.833,572.5 835.5,573.5C 835.5,565.167 835.5,556.833 835.5,548.5C 835.5,531.167 835.5,513.833 835.5,496.5C 835.5,471.5 835.5,446.5 835.5,421.5C 835.5,363.5 835.5,305.5 835.5,247.5C 824.5,247.5 813.5,247.5 802.5,247.5C 795.039,234.369 786.039,222.369 775.5,211.5 Z"/></g>
<g><path style="opacity:1" fill="#4e597d" d="M 691.5,215.5 C 691.5,216.833 691.5,218.167 691.5,219.5C 690.167,219.5 688.833,219.5 687.5,219.5C 687.5,218.167 687.5,216.833 687.5,215.5C 688.833,215.5 690.167,215.5 691.5,215.5 Z"/></g>
<g><path style="opacity:1" fill="#663635" d="M 691.5,215.5 C 699.5,215.5 707.5,215.5 715.5,215.5C 716.833,215.5 718.167,215.5 719.5,215.5C 719.5,216.833 719.5,218.167 719.5,219.5C 719.5,228.833 719.5,238.167 719.5,247.5C 708.833,247.5 698.167,247.5 687.5,247.5C 687.5,238.167 687.5,228.833 687.5,219.5C 688.833,219.5 690.167,219.5 691.5,219.5C 691.5,218.167 691.5,216.833 691.5,215.5 Z"/></g>
<g><path style="opacity:1" fill="#4c577a" d="M 715.5,215.5 C 716.833,215.5 718.167,215.5 719.5,215.5C 719.5,216.833 719.5,218.167 719.5,219.5C 718.167,219.5 716.833,219.5 715.5,219.5C 715.5,218.167 715.5,216.833 715.5,215.5 Z"/></g>
<g><path style="opacity:1" fill="#222540" d="M 691.5,211.5 C 691.5,212.833 691.5,214.167 691.5,215.5C 690.167,215.5 688.833,215.5 687.5,215.5C 687.5,216.833 687.5,218.167 687.5,219.5C 686.167,219.5 684.833,219.5 683.5,219.5C 683.5,228.833 683.5,238.167 683.5,247.5C 681.167,247.5 678.833,247.5 676.5,247.5C 638.833,247.5 601.167,247.5 563.5,247.5C 563.5,302.5 563.5,357.5 563.5,412.5C 563.5,421.5 563.5,430.5 563.5,439.5C 546.5,439.5 529.5,439.5 512.5,439.5C 504.597,428.245 497.931,416.245 492.5,403.5C 496.833,403.5 501.167,403.5 505.5,403.5C 523.5,403.5 541.5,403.5 559.5,403.5C 559.5,348.167 559.5,292.833 559.5,237.5C 559.5,228.833 559.5,220.167 559.5,211.5C 603.5,211.5 647.5,211.5 691.5,211.5 Z"/></g>
<g><path style="opacity:1" fill="#505c80" d="M 687.5,219.5 C 687.5,228.833 687.5,238.167 687.5,247.5C 686.167,247.5 684.833,247.5 683.5,247.5C 683.5,238.167 683.5,228.833 683.5,219.5C 684.833,219.5 686.167,219.5 687.5,219.5 Z"/></g>
<g><path style="opacity:1" fill="#151022" d="M 707.5,231.5 C 710.167,231.5 712.833,231.5 715.5,231.5C 715.5,234.167 715.5,236.833 715.5,239.5C 712.833,239.5 710.167,239.5 707.5,239.5C 707.5,236.833 707.5,234.167 707.5,231.5 Z"/></g>
<g><path style="opacity:1" fill="#4e597c" d="M 719.5,219.5 C 720.833,219.5 722.167,219.5 723.5,219.5C 723.5,228.833 723.5,238.167 723.5,247.5C 722.167,247.5 720.833,247.5 719.5,247.5C 719.5,238.167 719.5,228.833 719.5,219.5 Z"/></g>
<g><path style="opacity:1" fill="#191b30" d="M 367.5,211.5 C 375.5,211.5 383.5,211.5 391.5,211.5C 391.5,212.833 391.5,214.167 391.5,215.5C 391.5,278.167 391.5,340.833 391.5,403.5C 400.167,403.5 408.833,403.5 417.5,403.5C 425.167,403.5 432.833,403.5 440.5,403.5C 444.054,415.939 448.72,427.939 454.5,439.5C 439.833,439.5 425.167,439.5 410.5,439.5C 402.833,439.5 395.167,439.5 387.5,439.5C 387.5,375.5 387.5,311.5 387.5,247.5C 375.833,247.5 364.167,247.5 352.5,247.5C 356.948,235.271 361.948,223.271 367.5,211.5 Z"/></g>
<g><path style="opacity:1" fill="#656172" d="M 266.5,207.5 C 266.567,208.959 266.234,210.292 265.5,211.5C 256.833,211.5 248.167,211.5 239.5,211.5C 239.5,232.833 239.5,254.167 239.5,275.5C 238.5,275.5 237.5,275.5 236.5,275.5C 220.833,275.5 205.167,275.5 189.5,275.5C 189.5,274.167 189.5,272.833 189.5,271.5C 190.5,271.5 191.5,271.5 192.5,271.5C 206.833,271.5 221.167,271.5 235.5,271.5C 235.5,250.167 235.5,228.833 235.5,207.5C 245.833,207.5 256.167,207.5 266.5,207.5 Z"/></g>
<g><path style="opacity:1" fill="#181b2f" d="M 283.5,247.5 C 283.167,250.167 282.833,252.833 282.5,255.5C 272.167,255.5 261.833,255.5 251.5,255.5C 251.5,276.833 251.5,298.167 251.5,319.5C 226.167,319.5 200.833,319.5 175.5,319.5C 175.5,316.833 175.5,314.167 175.5,311.5C 194.5,311.5 213.5,311.5 232.5,311.5C 236.167,311.5 239.833,311.5 243.5,311.5C 243.5,290.167 243.5,268.833 243.5,247.5C 256.833,247.5 270.167,247.5 283.5,247.5 Z"/></g>
<g><path style="opacity:1" fill="#333b60" d="M 676.5,247.5 C 678.833,247.5 681.167,247.5 683.5,247.5C 684.833,247.5 686.167,247.5 687.5,247.5C 698.167,247.5 708.833,247.5 719.5,247.5C 720.833,247.5 722.167,247.5 723.5,247.5C 728.5,247.5 733.5,247.5 738.5,247.5C 775.675,289.223 785.842,336.889 769,390.5C 748.49,441.003 711.324,470.836 657.5,480C 628.299,483.493 600.632,478.493 574.5,465C 571.33,462.669 569.997,459.503 570.5,455.5C 570.5,453.833 570.5,452.167 570.5,450.5C 570.5,449.833 570.5,449.167 570.5,448.5C 547.908,447.501 524.575,447.167 500.5,447.5C 499.167,444.833 497.833,442.167 496.5,439.5C 501.833,439.5 507.167,439.5 512.5,439.5C 529.5,439.5 546.5,439.5 563.5,439.5C 563.5,430.5 563.5,421.5 563.5,412.5C 592.459,441.869 627.126,451.702 667.5,442C 706.672,429.163 730.838,402.663 740,362.5C 746.305,308.715 725.138,270.382 676.5,247.5 Z"/></g>
<g><path style="opacity:1" fill="#30375a" d="M 738.5,247.5 C 753.5,247.5 768.5,247.5 783.5,247.5C 818.876,305.178 821.709,364.511 792,425.5C 760.704,479.419 713.871,509.586 651.5,516C 623.084,517.983 595.917,513.149 570,501.5C 568.048,495.301 567.215,488.635 567.5,481.5C 567.59,473.113 568.257,464.779 569.5,456.5C 569.5,455.833 569.833,455.5 570.5,455.5C 569.997,459.503 571.33,462.669 574.5,465C 600.632,478.493 628.299,483.493 657.5,480C 711.324,470.836 748.49,441.003 769,390.5C 785.842,336.889 775.675,289.223 738.5,247.5 Z"/></g>
<g><path style="opacity:1" fill="#2c3354" d="M 783.5,247.5 C 789.833,247.5 796.167,247.5 802.5,247.5C 813.5,247.5 824.5,247.5 835.5,247.5C 835.5,305.5 835.5,363.5 835.5,421.5C 803.195,494.612 747.528,538.112 668.5,552C 634.706,556.651 601.706,553.318 569.5,542C 563.355,532 560.689,520.667 561.5,508C 561.643,490.314 564.31,473.147 569.5,456.5C 568.257,464.779 567.59,473.113 567.5,481.5C 567.215,488.635 568.048,495.301 570,501.5C 595.917,513.149 623.084,517.983 651.5,516C 713.871,509.586 760.704,479.419 792,425.5C 821.709,364.511 818.876,305.178 783.5,247.5 Z"/></g>
<g><path style="opacity:1" fill="#373f65" d="M 676.5,247.5 C 725.138,270.382 746.305,308.715 740,362.5C 730.838,402.663 706.672,429.163 667.5,442C 627.126,451.702 592.459,441.869 563.5,412.5C 563.5,357.5 563.5,302.5 563.5,247.5C 601.167,247.5 638.833,247.5 676.5,247.5 Z"/></g>
<g><path style="opacity:1" fill="#05050e" d="M 282.5,255.5 C 314.833,255.5 347.167,255.5 379.5,255.5C 379.5,319.5 379.5,383.5 379.5,447.5C 390.833,447.5 402.167,447.5 413.5,447.5C 442.5,447.5 471.5,447.5 500.5,447.5C 524.575,447.167 547.908,447.501 570.5,448.5C 568.809,449.864 567.142,451.197 565.5,452.5C 553.67,457.811 543.004,464.978 533.5,474C 485.799,521.285 442.633,571.452 404,624.5C 389.646,647.104 375.146,669.271 360.5,691C 361.684,692.145 361.684,693.312 360.5,694.5C 300.167,694.5 239.833,694.5 179.5,694.5C 179.667,680.163 179.5,665.829 179,651.5C 178.051,649.907 176.885,648.574 175.5,647.5C 175.5,623.5 175.5,599.5 175.5,575.5C 149.5,575.5 123.5,575.5 97.5,575.5C 64.8333,575.5 32.1667,575.5 -0.5,575.5C -0.5,518.167 -0.5,460.833 -0.5,403.5C 15.5,403.5 31.5,403.5 47.5,403.5C 47.5,360.833 47.5,318.167 47.5,275.5C 55.1667,275.5 62.8333,275.5 70.5,275.5C 76.8333,275.5 83.1667,275.5 89.5,275.5C 88.0589,287.46 87.0589,299.46 86.5,311.5C 74.8333,311.5 63.1667,311.5 51.5,311.5C 51.3334,337.835 51.5,364.169 52,390.5C 53.4309,408.948 55.7643,427.281 59,445.5C 59.5,403.501 59.6667,361.501 59.5,319.5C 72.1667,319.5 84.8333,319.5 97.5,319.5C 123.5,319.5 149.5,319.5 175.5,319.5C 200.833,319.5 226.167,319.5 251.5,319.5C 251.5,298.167 251.5,276.833 251.5,255.5C 261.833,255.5 272.167,255.5 282.5,255.5 Z"/></g>
<g><path style="opacity:1" fill="#1a1627" d="M 61.5,271.5 C 64.8333,271.5 68.1667,271.5 71.5,271.5C 70.7659,272.708 70.4326,274.041 70.5,275.5C 62.8333,275.5 55.1667,275.5 47.5,275.5C 47.5,318.167 47.5,360.833 47.5,403.5C 31.5,403.5 15.5,403.5 -0.5,403.5C -0.5,402.167 -0.5,400.833 -0.5,399.5C 14.1667,399.5 28.8333,399.5 43.5,399.5C 43.5,356.833 43.5,314.167 43.5,271.5C 49.5,271.5 55.5,271.5 61.5,271.5 Z"/></g>
<g><path style="opacity:1" fill="#332f40" d="M 71.5,271.5 C 91.1667,271.5 110.833,271.5 130.5,271.5C 130.567,272.959 130.234,274.292 129.5,275.5C 116.167,275.5 102.833,275.5 89.5,275.5C 83.1667,275.5 76.8333,275.5 70.5,275.5C 70.4326,274.041 70.7659,272.708 71.5,271.5 Z"/></g>
<g><path style="opacity:1" fill="#4c4859" d="M 130.5,271.5 C 150.167,271.5 169.833,271.5 189.5,271.5C 189.5,272.833 189.5,274.167 189.5,275.5C 183.833,275.5 178.167,275.5 172.5,275.5C 158.167,275.5 143.833,275.5 129.5,275.5C 130.234,274.292 130.567,272.959 130.5,271.5 Z"/></g>
<g><path style="opacity:1" fill="#394366" d="M 633.5,271.5 C 680.322,272.989 706.322,296.989 711.5,343.5C 707.167,387.167 683.167,411.167 639.5,415.5C 595.833,411.167 571.833,387.167 567.5,343.5C 571.162,302.511 593.162,278.511 633.5,271.5 Z"/></g>
<g><path style="opacity:1" fill="#242a46" d="M 283.5,247.5 C 287.833,247.5 292.167,247.5 296.5,247.5C 315.167,247.5 333.833,247.5 352.5,247.5C 364.167,247.5 375.833,247.5 387.5,247.5C 387.5,311.5 387.5,375.5 387.5,439.5C 395.167,439.5 402.833,439.5 410.5,439.5C 411.892,442.007 412.892,444.673 413.5,447.5C 402.167,447.5 390.833,447.5 379.5,447.5C 379.5,383.5 379.5,319.5 379.5,255.5C 347.167,255.5 314.833,255.5 282.5,255.5C 282.833,252.833 283.167,250.167 283.5,247.5 Z"/></g>
<g><path style="opacity:1" fill="#0e0f1c" d="M 172.5,275.5 C 178.167,275.5 183.833,275.5 189.5,275.5C 205.167,275.5 220.833,275.5 236.5,275.5C 235.002,287.481 233.669,299.481 232.5,311.5C 213.5,311.5 194.5,311.5 175.5,311.5C 175.5,314.167 175.5,316.833 175.5,319.5C 149.5,319.5 123.5,319.5 97.5,319.5C 97.2924,317.08 97.6258,314.747 98.5,312.5C 121.824,311.5 145.157,311.167 168.5,311.5C 169.759,299.499 171.093,287.499 172.5,275.5 Z"/></g>
<g><path style="opacity:1" fill="#aca8b9" d="M 395.5,209.5 C 395.5,213.833 395.5,218.167 395.5,222.5C 395.5,281.5 395.5,340.5 395.5,399.5C 402.833,399.5 410.167,399.5 417.5,399.5C 417.5,400.833 417.5,402.167 417.5,403.5C 408.833,403.5 400.167,403.5 391.5,403.5C 391.5,340.833 391.5,278.167 391.5,215.5C 392.833,213.5 394.167,211.5 395.5,209.5 Z"/></g>
<g><path style="opacity:1" fill="#bab6c7" d="M 743.5,207.5 C 754.833,207.5 766.167,207.5 777.5,207.5C 799.5,207.5 821.5,207.5 843.5,207.5C 843.5,309.167 843.5,410.833 843.5,512.5C 842.167,513.833 840.833,515.167 839.5,516.5C 839.5,414.833 839.5,313.167 839.5,211.5C 818.167,211.5 796.833,211.5 775.5,211.5C 765.833,211.5 756.167,211.5 746.5,211.5C 745.5,210.167 744.5,208.833 743.5,207.5 Z"/></g>
<g><path style="opacity:1" fill="#080813" d="M 89.5,275.5 C 102.833,275.5 116.167,275.5 129.5,275.5C 143.833,275.5 158.167,275.5 172.5,275.5C 171.093,287.499 169.759,299.499 168.5,311.5C 145.157,311.167 121.824,311.5 98.5,312.5C 97.6258,314.747 97.2924,317.08 97.5,319.5C 84.8333,319.5 72.1667,319.5 59.5,319.5C 59.6667,361.501 59.5,403.501 59,445.5C 55.7643,427.281 53.4309,408.948 52,390.5C 51.5,364.169 51.3334,337.835 51.5,311.5C 63.1667,311.5 74.8333,311.5 86.5,311.5C 87.0589,299.46 88.0589,287.46 89.5,275.5 Z"/></g>
<g><path style="opacity:1" fill="#191527" d="M 627.5,347.5 C 630.167,347.5 632.833,347.5 635.5,347.5C 635.5,344.833 635.5,342.167 635.5,339.5C 632.833,339.5 630.167,339.5 627.5,339.5C 627.5,336.833 627.5,334.167 627.5,331.5C 628.833,331.5 630.167,331.5 631.5,331.5C 631.5,330.167 631.5,328.833 631.5,327.5C 636.833,327.5 642.167,327.5 647.5,327.5C 647.5,328.833 647.5,330.167 647.5,331.5C 648.833,331.5 650.167,331.5 651.5,331.5C 651.5,340.833 651.5,350.167 651.5,359.5C 650.167,359.5 648.833,359.5 647.5,359.5C 647.5,358.167 647.5,356.833 647.5,355.5C 646.167,355.5 644.833,355.5 643.5,355.5C 643.5,356.833 643.5,358.167 643.5,359.5C 642.167,359.5 640.833,359.5 639.5,359.5C 639.5,358.167 639.5,356.833 639.5,355.5C 638.167,355.5 636.833,355.5 635.5,355.5C 635.5,356.833 635.5,358.167 635.5,359.5C 634.167,359.5 632.833,359.5 631.5,359.5C 631.5,358.167 631.5,356.833 631.5,355.5C 630.167,355.5 628.833,355.5 627.5,355.5C 627.5,352.833 627.5,350.167 627.5,347.5 Z"/></g>
<g><path style="opacity:1" fill="#fefffe" d="M 627.5,339.5 C 630.167,339.5 632.833,339.5 635.5,339.5C 635.5,342.167 635.5,344.833 635.5,347.5C 632.833,347.5 630.167,347.5 627.5,347.5C 627.5,344.833 627.5,342.167 627.5,339.5 Z"/></g>
<g><path style="opacity:1" fill="#fefffe" d="M 639.5,339.5 C 642.167,339.5 644.833,339.5 647.5,339.5C 647.5,342.167 647.5,344.833 647.5,347.5C 644.833,347.5 642.167,347.5 639.5,347.5C 639.5,344.833 639.5,342.167 639.5,339.5 Z"/></g>
<g><path style="opacity:1" fill="#ede9fa" d="M 559.5,237.5 C 559.5,292.833 559.5,348.167 559.5,403.5C 541.5,403.5 523.5,403.5 505.5,403.5C 504.833,402.167 504.167,400.833 503.5,399.5C 520.833,399.5 538.167,399.5 555.5,399.5C 555.5,346.5 555.5,293.5 555.5,240.5C 556.833,239.5 558.167,238.5 559.5,237.5 Z"/></g>
<g><path style="opacity:1" fill="#cdc9da" d="M 417.5,399.5 C 429.5,399.5 441.5,399.5 453.5,399.5C 460.167,399.5 466.833,399.5 473.5,399.5C 483.5,399.5 493.5,399.5 503.5,399.5C 504.167,400.833 504.833,402.167 505.5,403.5C 501.167,403.5 496.833,403.5 492.5,403.5C 475.167,403.5 457.833,403.5 440.5,403.5C 432.833,403.5 425.167,403.5 417.5,403.5C 417.5,402.167 417.5,400.833 417.5,399.5 Z"/></g>
<g><path style="opacity:1" fill="#1e2139" d="M 440.5,403.5 C 457.833,403.5 475.167,403.5 492.5,403.5C 497.931,416.245 504.597,428.245 512.5,439.5C 507.167,439.5 501.833,439.5 496.5,439.5C 482.5,439.5 468.5,439.5 454.5,439.5C 448.72,427.939 444.054,415.939 440.5,403.5 Z"/></g>
<g><path style="opacity:1" fill="#292f4d" d="M 835.5,421.5 C 835.5,446.5 835.5,471.5 835.5,496.5C 774.788,568.925 697.122,599.759 602.5,589C 591.174,587.21 580.007,584.71 569,581.5C 567.012,580.012 565.179,578.346 563.5,576.5C 558.452,566.66 555.118,556.493 553.5,546C 553.391,537.037 553.558,527.871 554,518.5C 556.053,499.742 559.886,481.075 565.5,462.5C 566.738,460.786 567.405,458.786 567.5,456.5C 568.508,454.456 569.508,452.456 570.5,450.5C 570.5,452.167 570.5,453.833 570.5,455.5C 569.833,455.5 569.5,455.833 569.5,456.5C 564.31,473.147 561.643,490.314 561.5,508C 560.689,520.667 563.355,532 569.5,542C 601.706,553.318 634.706,556.651 668.5,552C 747.528,538.112 803.195,494.612 835.5,421.5 Z"/></g>
<g><path style="opacity:1" fill="#2b3252" d="M 410.5,439.5 C 425.167,439.5 439.833,439.5 454.5,439.5C 468.5,439.5 482.5,439.5 496.5,439.5C 497.833,442.167 499.167,444.833 500.5,447.5C 471.5,447.5 442.5,447.5 413.5,447.5C 412.892,444.673 411.892,442.007 410.5,439.5 Z"/></g>
<g><path style="opacity:1" fill="#090915" d="M 565.5,452.5 C 565.5,452.833 565.5,453.167 565.5,453.5C 564.508,453.328 563.842,453.662 563.5,454.5C 551.014,462.805 539.514,472.471 529,483.5C 486.903,530.53 450.07,581.363 418.5,636C 418.833,636.333 419.167,636.667 419.5,637C 408.332,656.288 400.332,675.455 395.5,694.5C 383.833,694.5 372.167,694.5 360.5,694.5C 361.684,693.312 361.684,692.145 360.5,691C 375.146,669.271 389.646,647.104 404,624.5C 442.633,571.452 485.799,521.285 533.5,474C 543.004,464.978 553.67,457.811 565.5,452.5 Z"/></g>
<g><path style="opacity:1" fill="#141628" d="M 565.5,453.5 C 562.823,457.529 560.156,461.529 557.5,465.5C 542.572,482.956 529.739,501.956 519,522.5C 499.598,558.033 486.765,595.533 480.5,635C 480.957,635.414 481.291,635.914 481.5,636.5C 478.482,655.271 479.816,674.604 485.5,694.5C 477.167,694.5 468.833,694.5 460.5,694.5C 457.842,663.921 462.175,634.421 473.5,606C 491.97,552.987 519.637,505.153 556.5,462.5C 558.49,459.512 560.823,456.845 563.5,454.5C 563.842,453.662 564.508,453.328 565.5,453.5 Z"/></g>
<g><path style="opacity:1" fill="#0d0e1c" d="M 563.5,454.5 C 560.823,456.845 558.49,459.512 556.5,462.5C 549.924,467.57 543.757,473.237 538,479.5C 500.148,525.375 469.314,575.541 445.5,630C 443.189,638.174 440.522,646.508 437.5,655C 437.848,657.055 437.181,659.055 435.5,661C 436.309,664.11 435.643,667.443 433.5,671C 433.833,672 434.167,673 434.5,674C 432.384,680.625 431.051,687.458 430.5,694.5C 418.833,694.5 407.167,694.5 395.5,694.5C 400.332,675.455 408.332,656.288 419.5,637C 419.167,636.667 418.833,636.333 418.5,636C 450.07,581.363 486.903,530.53 529,483.5C 539.514,472.471 551.014,462.805 563.5,454.5 Z"/></g>
<g><path style="opacity:1" fill="#1a1d33" d="M 570.5,448.5 C 570.5,449.167 570.5,449.833 570.5,450.5C 569.508,452.456 568.508,454.456 567.5,456.5C 565.113,458.258 563.446,460.591 562.5,463.5C 547.577,484.675 535.743,507.675 527,532.5C 516.305,562.466 511.471,592.3 512.5,622C 515.211,646.446 524.378,668.279 540,687.5C 542.437,689.956 544.937,692.29 547.5,694.5C 537.167,694.5 526.833,694.5 516.5,694.5C 508.405,680.062 502.738,664.562 499.5,648C 497.127,610.172 503.961,572.672 520,535.5C 525.765,522.661 531.598,509.994 537.5,497.5C 544.181,486.796 550.848,476.129 557.5,465.5C 560.156,461.529 562.823,457.529 565.5,453.5C 565.5,453.167 565.5,452.833 565.5,452.5C 567.142,451.197 568.809,449.864 570.5,448.5 Z"/></g>
<g><path style="opacity:1" fill="#222741" d="M 567.5,456.5 C 567.405,458.786 566.738,460.786 565.5,462.5C 547.871,501.461 541.204,540.294 545.5,579C 547.771,588.763 551.438,598.263 556.5,607.5C 559.898,611.697 563.898,615.197 568.5,618C 669.765,640.936 758.765,617.769 835.5,548.5C 835.5,556.833 835.5,565.167 835.5,573.5C 835.5,579.833 835.5,586.167 835.5,592.5C 755.203,652.798 665.703,672.464 567,651.5C 557.139,646.654 550.306,639.487 546.5,630C 541.909,623.185 538.743,615.685 537,607.5C 531.24,577.389 532.907,547.389 542,517.5C 545.878,505.363 550.045,493.363 554.5,481.5C 557.7,475.764 560.367,469.764 562.5,463.5C 563.446,460.591 565.113,458.258 567.5,456.5 Z"/></g>
<g><path style="opacity:1" fill="#171a2e" d="M 557.5,465.5 C 550.848,476.129 544.181,486.796 537.5,497.5C 531.598,509.994 525.765,522.661 520,535.5C 503.961,572.672 497.127,610.172 499.5,648C 502.738,664.562 508.405,680.062 516.5,694.5C 506.167,694.5 495.833,694.5 485.5,694.5C 479.816,674.604 478.482,655.271 481.5,636.5C 481.291,635.914 480.957,635.414 480.5,635C 486.765,595.533 499.598,558.033 519,522.5C 529.739,501.956 542.572,482.956 557.5,465.5 Z"/></g>
<g><path style="opacity:1" fill="#1d2139" d="M 562.5,463.5 C 560.367,469.764 557.7,475.764 554.5,481.5C 532.57,524.005 524.57,567.839 530.5,613C 533.423,624.126 537.923,635.293 544,646.5C 549.579,654.359 557.079,660.859 566.5,666C 664.313,685.939 753.98,667.439 835.5,610.5C 835.5,638.5 835.5,666.5 835.5,694.5C 739.5,694.5 643.5,694.5 547.5,694.5C 544.937,692.29 542.437,689.956 540,687.5C 524.378,668.279 515.211,646.446 512.5,622C 511.471,592.3 516.305,562.466 527,532.5C 535.743,507.675 547.577,484.675 562.5,463.5 Z"/></g>
<g><path style="opacity:1" fill="#111223" d="M 556.5,462.5 C 519.637,505.153 491.97,552.987 473.5,606C 462.175,634.421 457.842,663.921 460.5,694.5C 450.5,694.5 440.5,694.5 430.5,694.5C 431.051,687.458 432.384,680.625 434.5,674C 434.167,673 433.833,672 433.5,671C 435.643,667.443 436.309,664.11 435.5,661C 437.181,659.055 437.848,657.055 437.5,655C 440.522,646.508 443.189,638.174 445.5,630C 469.314,575.541 500.148,525.375 538,479.5C 543.757,473.237 549.924,467.57 556.5,462.5 Z"/></g>
<g><path style="opacity:1" fill="#252a46" d="M 565.5,462.5 C 559.886,481.075 556.053,499.742 554,518.5C 553.558,527.871 553.391,537.037 553.5,546C 555.118,556.493 558.452,566.66 563.5,576.5C 565.179,578.346 567.012,580.012 569,581.5C 580.007,584.71 591.174,587.21 602.5,589C 697.122,599.759 774.788,568.925 835.5,496.5C 835.5,513.833 835.5,531.167 835.5,548.5C 758.765,617.769 669.765,640.936 568.5,618C 563.898,615.197 559.898,611.697 556.5,607.5C 551.438,598.263 547.771,588.763 545.5,579C 541.204,540.294 547.871,501.461 565.5,462.5 Z"/></g>
<g><path style="opacity:1" fill="#0d0b16" d="M 891.5,489.5 C 891.5,519.5 891.5,549.5 891.5,579.5C 876.657,594.688 860.657,608.355 843.5,620.5C 843.5,605.833 843.5,591.167 843.5,576.5C 843.5,567.5 843.5,558.5 843.5,549.5C 862.16,531.52 878.16,511.52 891.5,489.5 Z"/></g>
<g><path style="opacity:1" fill="#20243d" d="M 554.5,481.5 C 550.045,493.363 545.878,505.363 542,517.5C 532.907,547.389 531.24,577.389 537,607.5C 538.743,615.685 541.909,623.185 546.5,630C 550.306,639.487 557.139,646.654 567,651.5C 665.703,672.464 755.203,652.798 835.5,592.5C 835.5,598.5 835.5,604.5 835.5,610.5C 753.98,667.439 664.313,685.939 566.5,666C 557.079,660.859 549.579,654.359 544,646.5C 537.923,635.293 533.423,624.126 530.5,613C 524.57,567.839 532.57,524.005 554.5,481.5 Z"/></g>
<g><path style="opacity:1" fill="#9d99aa" d="M 843.5,512.5 C 843.5,524.833 843.5,537.167 843.5,549.5C 843.5,558.5 843.5,567.5 843.5,576.5C 842.167,577.5 840.833,578.5 839.5,579.5C 839.5,576.5 839.5,573.5 839.5,570.5C 839.5,552.5 839.5,534.5 839.5,516.5C 840.833,515.167 842.167,513.833 843.5,512.5 Z"/></g>
<g><path style="opacity:1" fill="#131526" d="M 839.5,570.5 C 839.5,573.5 839.5,576.5 839.5,579.5C 839.5,617.833 839.5,656.167 839.5,694.5C 838.167,694.5 836.833,694.5 835.5,694.5C 835.5,666.5 835.5,638.5 835.5,610.5C 835.5,604.5 835.5,598.5 835.5,592.5C 835.5,586.167 835.5,579.833 835.5,573.5C 836.833,572.5 838.167,571.5 839.5,570.5 Z"/></g>
<g><path style="opacity:1" fill="#181425" d="M -0.5,575.5 C 32.1667,575.5 64.8333,575.5 97.5,575.5C 98.1667,576.833 98.8333,578.167 99.5,579.5C 66.1667,579.5 32.8333,579.5 -0.5,579.5C -0.5,578.167 -0.5,576.833 -0.5,575.5 Z"/></g>
<g><path style="opacity:1" fill="#2d293a" d="M 97.5,575.5 C 123.5,575.5 149.5,575.5 175.5,575.5C 175.5,599.5 175.5,623.5 175.5,647.5C 175.5,651.5 175.5,655.5 175.5,659.5C 170.833,659.5 166.167,659.5 161.5,659.5C 160.4,658.395 159.733,657.062 159.5,655.5C 163.5,655.5 167.5,655.5 171.5,655.5C 171.5,630.167 171.5,604.833 171.5,579.5C 147.5,579.5 123.5,579.5 99.5,579.5C 98.8333,578.167 98.1667,576.833 97.5,575.5 Z"/></g>
<g><path style="opacity:1" fill="#0c0d1b" d="M 179.5,575.5 C 182.167,575.5 184.833,575.5 187.5,575.5C 187.667,597.836 187.5,620.169 187,642.5C 184.667,638.833 182.333,635.167 180,631.5C 179.5,612.836 179.333,594.17 179.5,575.5 Z"/></g>
<g><path style="opacity:1" fill="#020205" d="M -0.5,579.5 C 32.8333,579.5 66.1667,579.5 99.5,579.5C 123.5,579.5 147.5,579.5 171.5,579.5C 171.5,604.833 171.5,630.167 171.5,655.5C 167.5,655.5 163.5,655.5 159.5,655.5C 120.833,655.5 82.1667,655.5 43.5,655.5C 43.5,668.5 43.5,681.5 43.5,694.5C 28.8333,694.5 14.1667,694.5 -0.5,694.5C -0.5,656.167 -0.5,617.833 -0.5,579.5 Z"/></g>
<g><path style="opacity:1" fill="#0b0913" d="M 891.5,579.5 C 891.5,617.833 891.5,656.167 891.5,694.5C 875.5,694.5 859.5,694.5 843.5,694.5C 843.5,669.833 843.5,645.167 843.5,620.5C 860.657,608.355 876.657,594.688 891.5,579.5 Z"/></g>
<g><path style="opacity:1" fill="#7d798a" d="M 843.5,576.5 C 843.5,591.167 843.5,605.833 843.5,620.5C 843.5,645.167 843.5,669.833 843.5,694.5C 842.167,694.5 840.833,694.5 839.5,694.5C 839.5,656.167 839.5,617.833 839.5,579.5C 840.833,578.5 842.167,577.5 843.5,576.5 Z"/></g>
<g><path style="opacity:1" fill="#191526" d="M 159.5,655.5 C 159.733,657.062 160.4,658.395 161.5,659.5C 123.5,659.5 85.5,659.5 47.5,659.5C 47.5,671.167 47.5,682.833 47.5,694.5C 46.1667,694.5 44.8333,694.5 43.5,694.5C 43.5,681.5 43.5,668.5 43.5,655.5C 82.1667,655.5 120.833,655.5 159.5,655.5 Z"/></g>
<g><path style="opacity:1" fill="#04030a" d="M 175.5,647.5 C 176.885,648.574 178.051,649.907 179,651.5C 179.5,665.829 179.667,680.163 179.5,694.5C 135.5,694.5 91.5,694.5 47.5,694.5C 47.5,682.833 47.5,671.167 47.5,659.5C 85.5,659.5 123.5,659.5 161.5,659.5C 166.167,659.5 170.833,659.5 175.5,659.5C 175.5,655.5 175.5,651.5 175.5,647.5 Z"/></g>
</svg>
