<?xml version="1.0" standalone="no"?>
<!DOCTYPE svg PUBLIC "-//W3C//DTD SVG 20010904//EN"
 "http://www.w3.org/TR/2001/REC-SVG-20010904/DTD/svg10.dtd">
<svg version="1.0" xmlns="http://www.w3.org/2000/svg"
 width="680.000000pt" height="435.000000pt" viewBox="0 0 680.000000 435.000000"
 preserveAspectRatio="xMidYMid meet">

<g transform="translate(0.000000,435.000000) scale(0.100000,-0.100000)"
fill="#000000" stroke="none">
<path d="M0 3021 l0 -1328 40 1 c26 0 45 -5 51 -14 6 -9 9 -69 6 -150 l-4
-135 53 -51 c60 -58 82 -115 87 -225 2 -35 5 -70 8 -78 2 -7 -2 -16 -9 -18 -6
-3 -12 2 -12 10 0 22 -24 27 -59 14 -27 -10 -34 -9 -52 9 -11 11 -21 31 -21
45 -2 31 -16 49 -32 43 -11 -4 -11 -12 -1 -42 15 -44 6 -69 -30 -78 -24 -6
-25 -9 -25 -90 0 -79 1 -84 22 -88 55 -12 116 -11 146 1 18 8 37 11 41 8 5 -2
14 8 21 24 6 16 35 49 63 72 29 24 93 82 142 130 50 47 119 114 155 149 88 84
169 135 254 161 39 12 105 33 146 46 151 50 603 78 845 53 50 -5 141 -16 204
-24 63 -9 115 -15 116 -13 17 32 115 157 184 235 62 71 92 114 95 135 13 84
13 116 2 122 -8 3 -8 7 1 11 20 9 15 24 -6 24 -12 0 -23 11 -30 31 -15 42 -14
47 3 23 18 -24 23 -19 32 35 5 32 4 42 -4 37 -7 -4 -18 -4 -24 1 -7 4 -34 8
-60 8 -42 0 -50 4 -90 47 -23 26 -43 50 -44 55 0 4 -8 26 -18 48 -25 55 -17
177 13 209 12 12 21 25 21 29 0 13 50 79 75 99 42 33 41 13 -3 -40 l-41 -48
32 -13 c18 -8 40 -13 50 -12 9 1 17 -3 17 -8 0 -6 -4 -11 -9 -11 -5 0 -7 -8
-4 -19 3 -10 0 -22 -6 -25 -6 -4 -11 -3 -11 2 0 11 -45 32 -70 32 -27 0 -42
-34 -35 -78 11 -63 13 -66 33 -41 25 30 42 17 44 -34 1 -37 2 -38 5 -9 7 50
24 38 22 -16 -3 -65 4 -75 52 -67 26 5 45 3 54 -5 19 -16 19 -7 1 33 -22 48
-36 107 -36 153 0 23 -7 55 -15 70 -11 21 -11 30 -3 33 19 6 38 -30 38 -71 0
-35 18 -127 26 -137 2 -2 10 1 18 8 19 16 27 -7 16 -53 -4 -20 -4 -36 1 -36 5
0 12 -14 17 -32 4 -17 18 -38 30 -46 22 -14 22 -14 22 44 0 41 3 54 10 44 28
-45 43 61 21 157 -9 42 -9 59 4 95 8 23 15 50 15 59 0 9 7 22 15 29 9 7 14 19
11 27 -3 7 -1 13 5 13 6 0 8 9 4 20 -5 15 -2 20 10 20 13 0 16 6 13 25 -3 14
0 29 6 33 18 12 50 76 40 79 -6 2 -9 18 -8 35 1 18 0 37 -3 41 -3 5 -6 41 -6
81 0 39 -3 80 -8 91 -7 17 -8 17 -8 3 -1 -10 -5 -18 -11 -18 -14 0 -12 53 3
69 10 11 8 11 -10 2 -13 -6 -23 -16 -23 -21 0 -4 -3 -16 -7 -26 -4 -12 -3 -15
5 -10 23 14 12 -5 -23 -40 -32 -31 -40 -34 -36 -11 1 4 -8 3 -19 -3 -25 -13
-26 -21 -2 -15 9 3 5 0 -10 -7 -14 -7 -42 -30 -61 -51 -20 -20 -38 -37 -41
-37 -8 0 6 34 17 41 5 4 5 9 -1 13 -6 4 -18 -6 -26 -21 l-15 -28 3 35 c4 51
17 93 33 105 7 6 16 25 19 43 5 26 3 32 -10 32 -13 0 -16 5 -10 23 3 12 11 24
16 25 12 5 41 62 31 62 -5 0 -19 -17 -33 -37 -18 -27 -25 -51 -27 -92 -1 -31
-2 -58 -2 -60 -1 -2 -7 2 -15 8 -17 14 -28 1 -46 -57 -16 -50 -37 -73 -50 -52
-4 7 -6 20 -3 29 3 12 0 11 -11 -3 -9 -11 -16 -25 -16 -31 0 -17 -70 -92 -70
-75 -1 9 -5 6 -10 -7 -10 -24 -34 -31 -45 -13 -9 14 -25 2 -25 -18 0 -10 -9
-24 -20 -32 -12 -9 -20 -26 -20 -45 0 -16 -4 -36 -9 -43 -5 -8 -6 9 -3 40 2
29 11 60 18 69 16 18 19 33 5 24 -13 -7 -18 41 -9 90 3 22 2 41 -2 43 -6 2 -5
11 0 20 5 9 17 40 27 67 11 32 39 73 76 113 42 45 56 68 52 81 -4 14 3 25 25
41 17 12 28 26 25 31 -4 5 1 9 9 9 20 0 20 0 -9 -40 -14 -18 -23 -35 -21 -38
9 -8 54 30 50 43 -3 7 0 16 5 20 6 3 9 12 5 18 -3 7 1 4 9 -6 9 -10 18 -14 21
-8 3 5 0 11 -6 14 -10 3 -8 10 6 26 11 11 16 24 13 28 -9 9 13 34 24 27 5 -3
12 2 15 10 3 9 13 16 21 16 9 0 13 6 9 15 -3 9 0 15 9 15 8 0 12 -6 9 -14 -9
-22 30 -9 57 20 26 28 19 31 -16 8 -13 -9 -29 -13 -35 -9 -11 7 -14 36 -2 33
4 -2 8 1 9 5 1 4 28 25 60 47 47 31 69 39 118 43 33 3 77 12 97 21 44 19 52
20 42 4 -4 -6 -3 -8 3 -5 5 3 27 1 50 -4 34 -9 46 -8 79 10 44 24 68 27 40 6
-14 -11 -16 -15 -5 -15 12 0 12 -2 -1 -11 -11 -8 -7 -9 18 -5 23 4 32 2 32 -8
0 -9 17 -15 46 -19 26 -2 50 -10 54 -17 4 -7 13 -9 19 -6 6 4 11 2 11 -4 0 -6
5 -8 10 -5 6 3 10 -1 10 -9 0 -9 4 -16 10 -16 5 0 7 -7 3 -16 -5 -13 -8 -12
-25 5 -23 26 -29 26 -21 4 3 -10 -11 -1 -30 20 -34 35 -67 49 -67 27 0 -5 7
-10 15 -10 28 0 73 -58 58 -74 -3 -3 -14 -1 -25 5 -16 9 -26 6 -51 -18 -19
-18 -28 -22 -24 -11 4 13 2 15 -10 11 -14 -5 -14 -4 1 18 15 24 15 25 -7 24
-36 -1 -59 -20 -59 -48 0 -20 -8 -28 -30 -36 -17 -6 -26 -6 -23 -1 4 6 1 10
-4 10 -6 0 -11 -4 -11 -8 0 -5 -11 -15 -25 -22 -13 -7 -22 -17 -19 -22 3 -5 0
-9 -7 -7 -30 4 -47 -2 -53 -16 -5 -14 -3 -14 15 -1 12 8 28 12 36 9 12 -5 12
-7 1 -15 -9 -7 -4 -8 15 -4 15 4 27 2 27 -4 0 -5 -6 -10 -14 -10 -19 0 -47
-40 -39 -53 4 -6 -1 -8 -11 -4 -10 4 -15 3 -11 -3 4 -6 -2 -14 -12 -18 -14 -6
-18 -18 -18 -63 0 -59 9 -66 43 -32 7 7 23 13 34 13 15 0 19 5 15 19 -3 11 0
22 7 24 14 6 37 -18 28 -28 -4 -4 -2 -6 3 -3 6 2 28 12 50 21 22 10 48 22 57
27 24 13 28 13 28 -5 0 -23 31 -18 77 13 33 22 40 31 31 40 -9 9 -7 12 9 12
11 0 24 8 28 18 6 16 7 16 21 -2 8 -11 14 -16 14 -12 0 4 7 1 15 -6 29 -26 44
-38 49 -38 28 0 125 -61 176 -110 46 -45 65 -57 71 -48 12 19 11 46 -3 71 -16
29 -18 47 -6 47 9 0 -2 15 -78 105 -48 58 -68 119 -27 83 10 -9 25 -18 33 -21
8 -3 10 -6 3 -6 -24 -2 1 -42 34 -56 29 -12 33 -18 24 -29 -10 -12 -7 -18 14
-32 29 -19 121 -142 112 -150 -3 -3 1 -21 9 -39 20 -48 17 -61 -6 -34 -10 13
-19 18 -20 12 0 -7 4 -13 9 -13 4 0 4 -23 -1 -51 -10 -58 8 -128 45 -176 18
-22 24 -49 33 -153 6 -69 19 -154 30 -190 15 -52 19 -96 19 -225 0 -152 -2
-167 -38 -305 -20 -80 -43 -192 -51 -251 -26 -199 -90 -259 -258 -238 -154 19
-282 117 -397 306 -89 144 -163 253 -172 253 -5 0 -11 11 -15 24 -4 18 -12 23
-35 22 -32 -1 -40 -25 -14 -46 9 -7 13 -15 10 -19 -3 -3 -17 8 -30 24 -25 33
-43 30 -26 -4 9 -16 9 -19 -2 -15 -8 3 -20 16 -27 30 -7 13 -17 24 -21 24 -5
0 -20 21 -34 47 -14 27 -23 37 -19 24 3 -13 22 -51 41 -83 27 -46 32 -63 23
-71 -8 -9 -10 -8 -5 4 4 10 2 20 -3 23 -15 9 -24 -41 -12 -64 7 -13 7 -21 -2
-26 -6 -4 -8 -3 -4 4 3 6 2 13 -4 17 -5 3 -10 12 -10 19 0 8 -7 31 -16 52 -14
34 -17 37 -29 21 -11 -15 -14 -11 -24 30 -7 27 -18 62 -26 78 l-13 30 -10 -27
c-8 -20 -16 -25 -31 -21 -20 5 -21 1 -21 -61 0 -59 4 -73 32 -117 18 -27 40
-49 49 -49 10 0 23 18 35 47 l18 48 13 -45 c8 -25 18 -66 22 -91 9 -55 -5 -69
-66 -69 -67 0 -83 9 -84 44 0 17 -4 40 -8 51 -7 18 -9 17 -25 -12 -9 -18 -58
-81 -109 -140 -102 -119 -157 -191 -157 -208 0 -14 188 -47 220 -39 14 4 30
11 36 15 19 15 105 28 101 16 -2 -7 -12 -12 -23 -13 -46 -2 -57 -4 -50 -11 3
-4 -4 -13 -16 -20 -15 -8 -18 -12 -7 -13 8 0 19 4 25 10 14 14 92 -9 139 -40
22 -15 58 -33 80 -40 45 -14 72 -34 40 -28 -14 2 -19 -2 -17 -14 4 -26 -13
-22 -32 7 -9 14 -25 25 -37 25 -11 0 -22 7 -26 16 -4 11 -14 14 -32 11 -15 -3
-34 1 -45 9 -26 18 -42 18 -26 -1 17 -20 1 -19 -22 2 -19 17 -25 6 -8 -15 7
-9 7 -9 -2 -2 -15 12 -38 13 -38 1 0 -5 10 -11 22 -14 12 -4 20 -9 16 -12 -3
-3 -17 -1 -30 4 -18 7 -29 6 -37 -2 -6 -6 -12 -8 -12 -4 -5 25 -3 33 10 43 12
9 10 12 -12 11 -15 0 -29 -3 -32 -7 -3 -4 -26 -6 -52 -4 -44 4 -45 3 -18 -7
36 -12 56 -17 73 -18 16 -1 16 -38 0 -45 -10 -5 -10 -7 0 -12 25 -12 11 -24
-23 -20 -19 3 -35 0 -35 -5 0 -5 9 -9 20 -9 11 0 20 -5 20 -10 0 -6 -12 -9
-27 -7 -22 3 -27 9 -25 25 2 11 -2 24 -9 28 -9 5 -11 -4 -6 -35 4 -32 2 -44
-9 -48 -18 -7 -23 -3 -27 23 -1 10 -5 24 -9 29 -3 6 -9 31 -12 58 -10 65 -27
60 -18 -5 12 -102 10 -112 -26 -123 -26 -7 -31 -13 -26 -30 8 -22 8 -26 6 -70
-1 -17 -6 -25 -11 -20 -8 9 -12 40 -27 213 -8 92 -24 76 -24 -25 0 -39 -5 -75
-10 -78 -7 -4 -8 -11 -2 -18 6 -7 10 -25 10 -42 0 -16 5 -31 11 -33 9 -3 7
-10 -5 -23 -10 -11 -12 -19 -6 -19 7 0 12 -7 12 -15 0 -8 5 -15 10 -15 6 0 10
-11 10 -25 0 -17 -6 -25 -17 -26 -11 0 -13 -3 -5 -6 14 -5 16 -23 3 -23 -20 0
-34 114 -35 282 -1 64 -4 114 -8 110 -12 -13 -26 -185 -17 -209 5 -13 6 -36 3
-51 -3 -16 -1 -47 5 -69 11 -40 7 -73 -9 -73 -13 0 -23 113 -23 250 0 105 -1
117 -9 75 -5 -27 -10 -67 -11 -87 -1 -21 -6 -38 -11 -38 -5 0 -3 -6 3 -14 12
-14 11 -100 -2 -112 -4 -4 -7 -14 -6 -23 0 -12 2 -11 8 3 8 20 8 20 13 0 6
-22 -7 -64 -20 -64 -4 0 -8 8 -9 18 -12 154 -17 202 -24 202 -4 0 -6 -58 -2
-129 3 -82 2 -131 -5 -135 -6 -3 -9 8 -8 29 1 19 -2 35 -6 35 -5 0 -8 50 -8
112 0 61 -3 109 -6 105 -13 -12 -22 -203 -12 -250 5 -26 7 -56 3 -65 -12 -29
-24 19 -31 121 -5 75 -2 108 15 180 24 101 24 104 12 92 -17 -18 -44 -149 -52
-255 -10 -127 -10 -130 -21 -130 -10 0 1 -51 13 -65 5 -5 9 3 10 20 0 25 2 27
8 10 5 -11 2 -30 -6 -45 -7 -14 -13 -31 -13 -38 0 -18 -25 -42 -44 -42 -9 0
-18 11 -22 25 -7 28 -31 28 -26 0 2 -10 -1 -14 -7 -10 -19 11 -12 -3 11 -25
20 -18 21 -22 7 -36 -13 -13 -31 -14 -103 -8 -47 4 -86 11 -86 15 0 20 -2 25
-18 42 -9 11 -18 42 -20 77 -4 60 -15 73 -40 48 -7 -7 -12 -31 -12 -54 0 -34
-5 -47 -26 -63 -33 -26 -40 -22 -48 28 -4 27 -12 40 -26 44 -16 4 -20 12 -18
38 3 32 3 32 -44 34 -52 3 -58 -5 -58 -78 l0 -38 35 7 c30 5 35 3 36 -12 2
-67 8 -97 25 -117 11 -12 21 -35 23 -52 4 -38 7 -41 26 -25 10 8 15 26 13 49
-2 26 1 36 14 39 12 2 17 -5 20 -25 3 -26 6 -28 62 -33 38 -4 64 -1 75 7 38
29 141 5 141 -32 0 -17 30 -35 58 -35 36 0 45 -26 48 -136 2 -58 7 -111 12
-117 5 -7 12 -24 16 -39 5 -24 3 -28 -15 -28 -18 0 -19 2 -9 15 7 8 8 15 3 15
-5 0 -9 10 -9 23 1 13 -4 21 -12 19 -7 -1 -39 -4 -72 -5 -44 -2 -61 1 -65 11
-5 14 -18 14 -88 -4 -43 -10 -60 10 -52 67 l7 47 -44 -5 c-61 -7 -68 -10 -68
-32 0 -37 -19 -32 -30 9 -7 26 -7 46 -1 58 12 23 -2 47 -23 39 -12 -5 -14 -16
-9 -54 7 -60 -13 -162 -33 -170 -24 -9 -119 32 -116 50 1 9 -2 18 -8 22 -5 3
-10 17 -10 31 0 14 -6 27 -14 30 -11 4 -13 30 -11 122 3 187 2 182 25 182 15
0 20 -7 20 -25 0 -20 5 -25 25 -25 16 0 28 7 31 17 3 10 10 26 14 35 8 15 3
17 -43 20 l-52 3 -3 43 c-5 69 51 198 137 316 37 51 48 73 41 85 -7 15 -12 73
-11 139 1 12 -6 25 -15 29 -9 3 -13 12 -10 22 4 9 -2 6 -14 -7 -18 -22 -21
-22 -36 -8 -8 9 -20 16 -25 16 -5 0 -9 9 -9 20 0 17 -5 20 -37 16 -21 -3 -39
-10 -41 -16 -5 -13 -32 -13 -32 0 0 6 5 10 12 10 6 0 8 3 5 6 -4 4 -13 2 -20
-4 -8 -7 -17 -9 -21 -5 -11 11 -46 14 -46 3 0 -6 -4 -10 -10 -10 -5 0 -6 7 -3
17 4 11 3 14 -5 9 -7 -4 -12 -14 -12 -22 0 -8 -4 -14 -10 -14 -5 0 -10 7 -10
15 0 19 -10 19 -38 -1 -12 -8 -22 -11 -22 -5 0 6 -15 7 -37 4 -46 -7 -50 -10
-35 -25 7 -7 12 -21 11 -32 0 -20 -1 -20 -9 2 -10 24 -18 26 -38 13 -28 -17
-7 -177 43 -326 37 -109 287 -730 297 -736 5 -4 11 -33 12 -65 1 -48 4 -59 19
-62 11 -2 27 5 37 16 18 19 18 20 -7 31 -34 16 -24 35 23 42 44 8 78 -6 70
-27 -3 -8 -9 -21 -12 -29 -9 -21 22 -30 51 -15 19 10 27 10 45 -3 14 -10 18
-17 10 -22 -8 -5 -6 -13 6 -26 10 -11 12 -19 6 -19 -7 0 -12 -4 -12 -10 0 -5
14 -10 30 -10 30 0 41 14 18 23 -10 4 -9 8 2 16 13 9 12 12 -5 25 -20 15 -20
15 2 16 12 0 33 5 47 12 21 9 33 8 65 -6 32 -15 43 -16 62 -6 19 11 25 10 38
-7 14 -16 20 -17 39 -7 18 9 31 9 53 1 27 -11 33 -21 32 -55 -1 -16 54 -16 60
1 4 9 6 9 6 0 1 -16 101 -18 101 -2 0 5 -4 8 -9 5 -11 -7 -45 69 -37 83 4 6
13 11 21 11 7 0 16 6 19 13 5 13 -2 -34 -11 -68 -3 -11 -2 -17 2 -13 4 4 18
-4 32 -18 l24 -24 1483 0 1484 0 56 25 c35 16 85 28 129 31 71 6 73 6 101 -25
l30 -31 733 0 733 0 0 2175 0 2175 -3400 0 -3400 0 0 -1329z m3260 575 c0 -18
-36 -63 -62 -77 -22 -12 -23 -14 19 54 24 37 43 48 43 23z m4 -51 c-4 -9 0
-15 10 -15 9 0 16 -4 16 -10 0 -5 11 -10 25 -10 14 0 25 -6 25 -13 0 -9 10
-13 28 -12 25 1 28 -2 28 -28 0 -29 -1 -29 -43 -24 -39 4 -43 3 -38 -14 6 -19
-9 -27 -19 -10 -8 12 -48 2 -63 -16 -7 -9 -13 -11 -18 -4 -3 6 -1 11 4 11 6 0
11 6 11 13 0 7 9 23 20 35 24 25 25 32 6 32 -8 0 -24 -15 -36 -32 l-21 -33 6
33 c8 38 34 94 49 104 15 11 16 10 10 -7z m-284 -110 c-7 -8 -17 -15 -23 -15
-6 0 -2 7 9 15 25 19 30 19 14 0z m162 -40 c7 0 12 -8 12 -17 -1 -10 4 -14 12
-11 8 3 14 9 14 14 0 5 5 9 10 9 16 0 11 -13 -18 -45 -15 -17 -23 -25 -18 -18
14 21 -2 15 -57 -22 -52 -35 -77 -43 -77 -25 0 6 7 10 15 10 8 0 15 4 15 10 0
5 -8 7 -17 4 -15 -5 -15 -3 2 11 15 13 17 19 7 22 -14 5 5 19 55 42 16 7 21
16 17 28 -5 15 -4 16 5 3 6 -8 16 -15 23 -15z m-52 6 c0 -5 -7 -12 -16 -15
-14 -5 -15 -4 -4 9 14 17 20 19 20 6z m280 -1 c0 -5 -5 -10 -11 -10 -5 0 -7 5
-4 10 3 6 8 10 11 10 2 0 4 -4 4 -10z m80 -4 c0 -2 -7 -6 -15 -10 -8 -3 -15
-1 -15 4 0 6 7 10 15 10 8 0 15 -2 15 -4z m-622 -214 c-13 -22 -32 -43 -43
-46 -29 -8 -31 2 -3 13 27 10 42 36 31 53 -3 7 -1 8 5 4 11 -7 17 6 12 29 -1
6 3 6 9 -1 8 -7 5 -22 -11 -52z m-593 -11 c-3 -6 -11 -11 -16 -11 -5 0 -4 6 3
14 14 16 24 13 13 -3z m168 -232 c-5 -5 -9 6 -10 28 0 37 0 38 9 10 6 -18 7
-32 1 -38z m-1 -41 c-7 -7 -12 -8 -12 -2 0 14 12 26 19 19 2 -3 -1 -11 -7 -17z
m141 15 c-7 -2 -19 -2 -25 0 -7 3 -2 5 12 5 14 0 19 -2 13 -5z m-33 -27 c0 -2
-7 -7 -16 -10 -8 -3 -12 -2 -9 4 6 10 25 14 25 6z m487 -1254 c111 -110 168
-178 131 -157 -49 29 -126 91 -203 164 -50 47 -101 94 -113 103 -12 10 -22 29
-22 43 l0 26 43 -30 c23 -16 97 -83 164 -149z m-433 -187 c-4 -8 -8 -15 -10
-15 -2 0 -4 7 -4 15 0 8 4 15 10 15 5 0 7 -7 4 -15z m-1307 -161 c-2 -2 -12
-1 -22 3 -18 6 -18 7 1 13 17 7 33 -5 21 -16z m1171 -28 c-1 -19 -6 -32 -10
-30 -12 8 -10 64 2 64 6 0 10 -15 8 -34z m-1255 9 c-3 -9 -8 -14 -10 -11 -3 3
-2 9 2 15 9 16 15 13 8 -4z m112 -16 c-3 -4 -12 -6 -20 -3 -8 4 -13 10 -10 15
3 4 12 6 20 3 8 -4 13 -10 10 -15z m1587 -19 c31 -14 36 -19 22 -24 -10 -4
-25 1 -36 11 -11 10 -32 23 -46 30 -24 11 -24 12 -3 7 13 -4 41 -14 63 -24z
m-113 11 c7 -5 9 -11 5 -14 -5 -3 -15 1 -22 9 -14 16 -5 18 17 5z m-382 -41
c-3 -11 1 -23 8 -28 7 -4 15 -17 19 -28 6 -19 3 -21 -19 -16 -27 5 -33 17 -12
26 6 3 -1 5 -18 5 -50 -2 -55 0 -55 21 0 18 4 20 35 14 30 -5 34 -4 29 10 -4
9 -1 16 6 16 7 0 10 -8 7 -20z m1453 -19 c0 -13 88 -41 124 -40 28 1 26 2 -15
13 -25 7 -54 18 -65 25 -16 10 -15 10 11 5 17 -4 41 -11 55 -17 14 -5 95 -13
180 -18 181 -9 224 -15 265 -37 25 -13 27 -17 11 -20 -10 -2 -23 2 -27 10 -7
11 -11 10 -19 -2 -8 -13 -14 -13 -42 -1 -78 31 -97 35 -120 23 l-23 -12 23 6
c12 3 22 1 22 -5 0 -6 -2 -11 -4 -11 -2 0 -11 -3 -19 -6 -8 -3 -21 2 -30 10
-8 9 -35 19 -59 22 -40 7 -42 6 -29 -10 13 -15 12 -16 -13 -6 -15 5 -53 7 -87
3 -47 -5 -63 -3 -71 8 -7 11 -11 11 -15 2 -8 -22 -43 -14 -74 16 -36 36 -37
51 -4 51 14 0 25 -4 25 -9z m-1370 -75 c-1 -6 -7 4 -15 23 -8 18 -15 38 -15
45 1 6 7 -4 15 -23 8 -18 15 -38 15 -45z m-253 28 c-3 -3 -12 -4 -19 -1 -8 3
-5 6 6 6 11 1 17 -2 13 -5z m73 -4 c0 -5 -4 -10 -10 -10 -5 0 -10 5 -10 10 0
6 5 10 10 10 6 0 10 -4 10 -10z m2201 -76 c17 -8 28 -18 25 -21 -3 -3 -20 4
-38 16 -39 24 -30 28 13 5z m-2311 -50 c0 -8 -4 -12 -10 -9 -5 3 -10 10 -10
16 0 5 5 9 10 9 6 0 10 -7 10 -16z m24 -46 c-8 -29 -10 -31 -23 -23 -20 12
-13 45 10 45 16 0 19 -4 13 -22z m-1949 -7 c3 -5 1 -12 -5 -16 -5 -3 -10 1
-10 9 0 18 6 21 15 7z m2073 -19 c2 -7 -3 -12 -12 -12 -9 0 -16 7 -16 16 0 17
22 14 28 -4z m-73 -2 c3 -5 -1 -10 -9 -10 -9 0 -16 5 -16 10 0 6 4 10 9 10 6
0 13 -4 16 -10z m2522 -96 c-3 -3 -12 -4 -19 -1 -8 3 -5 6 6 6 11 1 17 -2 13
-5z m-2587 -89 c0 -2 -18 -9 -41 -15 -22 -6 -47 -14 -56 -17 -12 -5 -14 -1 -8
18 10 33 12 34 31 18 14 -11 17 -10 26 4 7 13 13 15 29 7 10 -6 19 -13 19 -15z
m109 11 c-11 -10 -89 -15 -89 -6 0 5 21 10 47 10 25 0 44 -2 42 -4z m-229 -28
c0 -22 -14 -36 -43 -43 -15 -4 -32 -16 -38 -26 -5 -11 -16 -19 -24 -19 -8 0
-15 -4 -15 -10 0 -5 -11 -19 -23 -32 -13 -13 -30 -39 -37 -58 -16 -43 -30 -61
-40 -55 -11 7 -1 42 16 56 8 6 14 20 14 30 0 10 16 30 35 45 19 14 35 33 35
40 0 8 7 14 15 14 8 0 19 9 25 20 6 11 17 20 24 20 8 0 19 7 26 15 15 18 30
19 30 3z m2973 -70 c21 -11 21 -11 2 -19 -36 -14 -70 -10 -83 11 -11 19 -10
20 24 20 19 0 45 -5 57 -12z m-2693 -48 c0 -11 -75 -9 -86 3 -4 4 14 7 39 7
26 0 47 -4 47 -10z m2680 -12 c0 -18 -2 -20 -9 -8 -6 8 -7 18 -5 22 9 14 14 9
14 -14z m-2805 2 c-3 -5 -15 -10 -26 -10 -10 0 -19 5 -19 10 0 6 12 10 26 10
14 0 23 -4 19 -10z m-70 -6 c14 -6 13 -8 -5 -21 -24 -17 -35 -12 -27 12 7 17
9 17 32 9z m-50 -24 c4 -6 -9 -17 -28 -25 -19 -8 -42 -27 -52 -42 -10 -15 -20
-22 -22 -16 -6 17 15 53 31 53 7 0 21 9 31 20 20 22 31 25 40 10z m-116 -87
c-1 -21 5 -54 13 -73 12 -28 17 -93 9 -120 -1 -3 -11 12 -22 32 -24 47 -36
147 -20 176 17 31 22 27 20 -15z m374 17 c5 -4 -5 -15 -22 -23 -17 -9 -32 -11
-32 -6 -1 5 -2 15 -3 22 -1 6 -5 15 -11 19 -5 5 6 5 25 2 19 -4 39 -10 43 -14z
m-173 -27 c8 -21 14 -40 15 -43 0 -3 4 -11 9 -18 10 -17 -5 -34 -20 -24 -15 9
-46 101 -39 113 11 17 21 9 35 -28z m52 25 c23 -19 30 -48 13 -48 -8 0 -15 6
-15 14 0 8 -7 22 -16 30 -18 19 -5 21 18 4z m-128 -65 c-21 -21 -34 -15 -34
16 0 20 6 31 18 33 21 4 33 -32 16 -49z m-174 -10 c-2 -32 0 -65 4 -73 3 -8 7
-51 9 -96 2 -73 0 -80 -15 -76 -11 2 -18 14 -18 28 0 12 -4 26 -10 29 -5 3
-10 15 -10 25 0 10 -5 20 -10 22 -6 2 -13 33 -17 70 -5 66 -5 67 28 97 18 17
35 31 37 31 2 0 3 -26 2 -57z m124 -21 c3 -20 9 -47 12 -59 4 -14 2 -23 -5
-23 -6 0 -11 7 -11 16 0 9 -5 12 -12 8 -7 -4 -8 -3 -4 4 4 6 0 22 -8 34 -11
19 -14 46 -7 77 1 2 7 -2 15 -8 7 -6 16 -28 20 -49z m471 38 c15 -6 25 -13 22
-16 -6 -6 -67 23 -67 32 0 3 4 3 9 0 4 -3 21 -10 36 -16z m895 0 c-38 -12
-119 -12 -100 0 8 5 40 9 70 9 42 -1 49 -3 30 -9z m57 4 c-3 -3 -12 -4 -19 -1
-8 3 -5 6 6 6 11 1 17 -2 13 -5z m-1341 -69 c-8 -21 -40 -15 -44 8 -2 10 5 25
15 32 16 12 19 11 27 -5 5 -10 6 -26 2 -35z m139 35 c3 -5 -3 -10 -14 -10 -12
0 -21 5 -21 10 0 6 6 10 14 10 8 0 18 -4 21 -10z m60 0 c3 -5 1 -10 -4 -10 -6
0 -11 5 -11 10 0 6 2 10 4 10 3 0 8 -4 11 -10z m108 -76 c3 -20 1 -24 -12 -19
-9 4 -28 9 -43 12 -38 7 -35 21 5 26 17 2 35 5 38 5 4 1 9 -10 12 -24z m72 -4
c3 -5 2 -10 -4 -10 -5 0 -13 5 -16 10 -3 6 -2 10 4 10 5 0 13 -4 16 -10z m-25
-45 c0 -4 -88 -45 -96 -45 -2 0 -4 4 -4 10 0 7 38 23 98 39 1 1 2 -1 2 -4z
m2855 -6 c-18 -5 -33 -5 -39 1 -7 7 4 10 30 9 39 -1 39 -1 9 -10z m-3320 -8
c3 -5 2 -12 -3 -15 -5 -3 -9 1 -9 9 0 17 3 19 12 6z m145 -6 c-7 -9 -15 -13
-19 -10 -3 3 1 10 9 15 21 14 24 12 10 -5z m190 -40 c-13 -16 -40 -20 -40 -7
0 14 12 22 33 22 16 0 17 -3 7 -15z m-920 -11 c0 -8 -4 -12 -10 -9 -5 3 -10
10 -10 16 0 5 5 9 10 9 6 0 10 -7 10 -16z m1138 9 c-10 -2 -28 -2 -40 0 -13 2
-5 4 17 4 22 1 32 -1 23 -4z m-458 -17 c0 -3 -4 -8 -10 -11 -5 -3 -10 -1 -10
4 0 6 5 11 10 11 6 0 10 -2 10 -4z m174 -2 c15 -6 15 -8 -1 -20 -25 -19 -33
-17 -33 6 0 21 8 24 34 14z m156 -9 c-35 -20 -62 -19 -36 0 11 8 29 15 40 15
19 -1 19 -2 -4 -15z m-396 -21 c3 -8 2 -12 -4 -9 -6 3 -10 10 -10 16 0 14 7
11 14 -7z m712 7 c-3 -5 -16 -11 -28 -14 -13 -2 -32 -8 -43 -12 -17 -6 -17 -4
4 14 22 20 78 30 67 12z m144 -10 c0 -16 -30 -41 -48 -41 -10 0 -13 3 -6 8 6
4 13 15 17 25 7 18 37 24 37 8z m-680 -15 c0 -3 -4 -8 -10 -11 -5 -3 -10 -1
-10 4 0 6 5 11 10 11 6 0 10 -2 10 -4z m-406 -42 c9 -3 13 -10 10 -15 -3 -5 0
-9 5 -9 6 0 11 -5 11 -11 0 -7 -10 -9 -27 -4 -35 8 -37 11 -30 30 7 17 9 17
31 9z m330 -9 c3 -8 1 -15 -3 -15 -5 0 -11 7 -15 15 -3 8 -1 15 3 15 5 0 11
-7 15 -15z m3409 -2 c-7 -2 -21 -2 -30 0 -10 3 -4 5 12 5 17 0 24 -2 18 -5z
m-2338 -23 c3 -5 3 -15 -1 -21 -6 -11 -23 6 -24 24 0 10 18 9 25 -3z m-1105
-46 c0 -8 -4 -12 -10 -9 -5 3 -10 10 -10 16 0 5 5 9 10 9 6 0 10 -7 10 -16z"/>
<path d="M2884 3454 c-16 -13 -24 -23 -17 -24 6 0 15 5 18 10 3 6 11 10 16 10
6 0 7 -4 4 -10 -9 -14 8 -13 23 2 32 32 -6 43 -44 12z"/>
<path d="M2705 3434 c-65 -33 -72 -41 -45 -49 27 -9 73 13 66 31 -3 7 4 16 15
19 10 4 19 11 19 16 0 12 3 13 -55 -17z"/>
<path d="M2784 3445 c-10 -8 -14 -14 -9 -15 15 0 40 18 34 24 -3 3 -14 -1 -25
-9z"/>
<path d="M2553 3428 c-11 -13 -18 -30 -15 -38 5 -13 3 -13 -14 0 -18 14 -18
14 -5 -2 7 -10 22 -18 32 -18 16 0 15 -3 -7 -25 -14 -14 -22 -30 -19 -35 3 -6
1 -10 -5 -10 -7 0 -9 12 -6 34 6 35 -13 64 -34 51 -5 -3 -10 -1 -10 5 0 7 -7
5 -16 -5 -9 -8 -13 -22 -10 -30 3 -10 0 -12 -11 -8 -9 4 -14 2 -10 -3 3 -6 2
-16 -3 -24 -5 -9 -5 -19 1 -27 7 -8 7 -19 -1 -33 -13 -24 -6 -55 10 -45 20 12
32 -7 13 -21 -10 -7 -14 -14 -10 -14 5 0 20 9 34 20 14 11 32 20 39 20 8 0 15
7 15 15 1 8 2 21 3 28 0 6 6 12 11 12 6 0 26 11 45 25 l35 24 -42 -47 c-48
-52 -57 -79 -19 -54 21 14 26 14 36 2 14 -17 46 -20 55 -5 3 6 12 10 18 9 9 0
9 -2 0 -6 -7 -2 -13 -11 -13 -19 0 -7 6 -11 13 -8 18 6 50 109 42 133 -7 22
-100 67 -130 63 -11 -1 -15 1 -10 5 8 6 17 53 10 53 -1 0 -11 -10 -22 -22z
m-56 -76 c1 -15 -3 -33 -9 -39 -8 -9 -7 -13 3 -13 11 0 11 -2 -1 -9 -21 -14
-33 -2 -17 17 15 19 12 52 -6 53 -7 0 -3 4 8 9 11 5 20 9 20 9 0 1 1 -11 2
-27z m163 -8 c0 -2 -9 0 -20 6 -11 6 -20 13 -20 16 0 2 9 0 20 -6 11 -6 20
-13 20 -16z"/>
<path d="M2758 3413 c7 -3 16 -2 19 1 4 3 -2 6 -13 5 -11 0 -14 -3 -6 -6z"/>
<path d="M2905 3400 c-3 -5 -2 -10 4 -10 5 0 13 5 16 10 3 6 2 10 -4 10 -5 0
-13 -4 -16 -10z"/>
<path d="M2563 3020 c-6 -14 -10 -26 -8 -28 6 -7 55 19 55 29 0 8 -4 8 -14 0
-11 -10 -15 -8 -19 6 -3 15 -6 14 -14 -7z"/>
<path d="M3535 3021 c7 -24 44 -91 50 -91 10 0 -16 64 -36 88 -20 26 -21 26
-14 3z"/>
<path d="M2480 2960 c0 -5 4 -10 9 -10 6 0 13 5 16 10 3 6 -1 10 -9 10 -9 0
-16 -4 -16 -10z"/>
<path d="M3130 2720 c-8 -5 -32 -7 -52 -5 -20 3 -40 0 -43 -5 -3 -6 -18 -10
-33 -11 -15 0 5 -7 44 -14 39 -7 82 -19 95 -26 l24 -14 -28 -3 c-15 -2 -25 -7
-22 -11 2 -5 -26 -11 -63 -13 -73 -5 -150 -34 -133 -51 5 -5 15 -6 23 -1 18
12 34 14 106 15 37 0 62 5 62 11 0 7 4 7 13 1 6 -6 23 -13 37 -16 25 -6 25 -6
-5 20 -31 27 -31 27 38 6 12 -4 29 -7 37 -7 8 -1 16 -10 18 -21 3 -22 40 -51
50 -40 4 4 -1 12 -10 19 -20 14 -14 26 13 26 24 0 34 19 19 33 -10 9 -12 8 -7
-5 5 -13 1 -18 -12 -18 -23 0 -35 36 -15 44 23 9 16 22 -21 36 -19 8 -35 20
-35 28 0 9 -6 12 -16 8 -11 -4 -15 -2 -11 6 6 16 -51 22 -73 8z"/>
<path d="M3486 2685 c-46 -41 -45 -71 3 -60 18 4 32 2 37 -6 4 -8 3 -9 -5 -5
-6 4 -21 4 -32 1 -18 -6 -19 -9 -8 -20 16 -15 159 -28 159 -14 0 11 -45 31
-107 50 -24 7 -43 16 -43 21 0 5 5 6 10 3 6 -3 10 -2 10 4 0 6 27 16 60 23 33
6 60 16 60 21 0 4 -4 6 -9 2 -5 -3 -12 -1 -16 5 -3 5 -23 10 -43 10 -28 0 -46
-8 -76 -35z"/>
<path d="M3340 2463 c0 -5 5 -15 10 -23 8 -12 10 -11 10 8 0 12 -4 22 -10 22
-5 0 -10 -3 -10 -7z"/>
<path d="M3275 2450 c-3 -6 1 -7 9 -4 18 7 21 14 7 14 -6 0 -13 -4 -16 -10z"/>
<path d="M3234 2375 c-14 -56 20 -95 81 -95 14 0 25 -6 25 -13 0 -7 14 -21 31
-31 l31 -18 34 33 c40 38 42 49 13 68 -16 10 -19 15 -9 21 17 10 4 29 -27 41
-20 7 -30 6 -43 -6 -25 -22 -87 -20 -102 5 -17 27 -26 25 -34 -5z"/>
<path d="M3560 2335 c0 -15 44 -112 65 -143 41 -60 30 -10 -16 73 -36 67 -49
85 -49 70z"/>
<path d="M2231 2264 c0 -11 3 -14 6 -6 3 7 2 16 -1 19 -3 4 -6 -2 -5 -13z"/>
<path d="M2290 2186 c0 -2 7 -9 15 -16 12 -10 15 -10 15 4 0 9 -7 16 -15 16
-8 0 -15 -2 -15 -4z"/>
<path d="M3222 2154 c-37 -7 -85 -21 -107 -32 -22 -11 -43 -18 -47 -16 -4 3
-15 -7 -25 -22 -15 -23 -15 -28 -2 -38 8 -6 13 -19 11 -30 -6 -28 21 -14 28
15 4 15 13 24 25 24 11 0 25 6 31 14 6 8 16 11 21 8 6 -4 22 5 37 18 33 31 45
33 180 39 104 4 110 3 133 -20 26 -26 31 -75 9 -93 -9 -8 -53 -12 -123 -11
-120 1 -315 -9 -323 -17 -9 -9 65 -62 85 -60 11 1 52 -2 92 -6 77 -9 155 5
150 26 -1 7 9 12 23 12 18 0 29 -9 41 -32 9 -18 19 -30 23 -26 3 4 12 -2 20
-12 12 -17 14 -16 25 18 7 19 9 51 6 70 -6 30 -4 36 14 42 17 5 20 12 15 33
-12 48 -34 82 -57 86 -76 15 -224 20 -285 10z"/>
<path d="M2421 2134 c0 -11 3 -14 6 -6 3 7 2 16 -1 19 -3 4 -6 -2 -5 -13z"/>
<path d="M2676 2019 c6 -11 44 -12 44 -1 0 4 -11 8 -25 8 -14 1 -22 -2 -19 -7z"/>
<path d="M2985 1850 c4 -14 26 -63 48 -110 106 -218 348 -355 477 -270 11 7 7
10 -18 10 -54 0 -153 32 -222 72 -36 21 -69 38 -75 38 -25 0 -175 183 -175
213 0 4 -9 21 -21 39 -17 28 -19 29 -14 8z"/>
<path d="M2355 1390 c-3 -5 1 -10 9 -10 8 0 18 5 21 10 3 6 -1 10 -9 10 -8 0
-18 -4 -21 -10z"/>
<path d="M980 1330 c-12 -8 -11 -10 8 -10 12 0 22 5 22 10 0 13 -11 13 -30 0z"/>
<path d="M877 1303 c-4 -3 -7 -11 -7 -17 0 -6 5 -5 12 2 6 6 9 14 7 17 -3 3
-9 2 -12 -2z"/>
<path d="M1297 1289 c7 -7 15 -10 18 -7 3 3 -2 9 -12 12 -14 6 -15 5 -6 -5z"/>
<path d="M1470 1250 c0 -5 5 -10 11 -10 5 0 7 5 4 10 -3 6 -8 10 -11 10 -2 0
-4 -4 -4 -10z"/>
<path d="M1837 1229 c-3 -12 -10 -18 -16 -14 -7 4 -11 -4 -11 -19 0 -22 -5
-26 -29 -26 -16 0 -32 -6 -34 -12 -3 -8 -6 -6 -6 5 -1 9 -7 17 -13 18 -7 0 -2
5 11 10 28 11 24 21 -4 13 -19 -5 -45 -45 -45 -68 0 -6 -7 -24 -15 -40 -17
-32 -12 -45 35 -94 26 -27 31 -25 56 27 10 23 24 41 30 41 7 0 15 7 18 16 9
24 7 31 -4 14 -6 -9 -10 -10 -10 -3 0 6 5 15 10 18 6 4 8 15 5 26 -5 14 -3 17
10 13 13 -5 15 -2 10 19 -4 16 -1 34 10 51 10 14 13 26 7 26 -5 0 -12 -9 -15
-21z m-90 -95 c-3 -3 -12 -4 -19 -1 -8 3 -5 6 6 6 11 1 17 -2 13 -5z"/>
<path d="M1971 1194 c0 -11 3 -14 6 -6 3 7 2 16 -1 19 -3 4 -6 -2 -5 -13z"/>
<path d="M1937 1193 c-4 -3 -7 -11 -7 -17 0 -6 5 -5 12 2 6 6 9 14 7 17 -3 3
-9 2 -12 -2z"/>
<path d="M1440 1170 c0 -13 11 -13 30 0 12 8 11 10 -7 10 -13 0 -23 -4 -23
-10z"/>
<path d="M690 1150 c0 -5 5 -10 11 -10 5 0 7 5 4 10 -3 6 -8 10 -11 10 -2 0
-4 -4 -4 -10z"/>
<path d="M1962 1140 c0 -14 2 -19 5 -12 2 6 2 18 0 25 -3 6 -5 1 -5 -13z"/>
<path d="M742 1139 c2 -7 10 -15 17 -17 8 -3 12 1 9 9 -2 7 -10 15 -17 17 -8
3 -12 -1 -9 -9z"/>
<path d="M710 1096 c0 -9 5 -16 10 -16 6 0 10 4 10 9 0 6 -4 13 -10 16 -5 3
-10 -1 -10 -9z"/>
<path d="M771 1084 c0 -11 3 -14 6 -6 3 7 2 16 -1 19 -3 4 -6 -2 -5 -13z"/>
<path d="M601 1064 c0 -11 3 -14 6 -6 3 7 2 16 -1 19 -3 4 -6 -2 -5 -13z"/>
<path d="M776 1045 c-3 -9 0 -15 9 -15 9 0 12 6 9 15 -4 8 -7 15 -9 15 -2 0
-5 -7 -9 -15z"/>
<path d="M680 1040 c0 -5 5 -10 11 -10 5 0 7 5 4 10 -3 6 -8 10 -11 10 -2 0
-4 -4 -4 -10z"/>
<path d="M720 1040 c0 -5 5 -10 10 -10 6 0 10 5 10 10 0 6 -4 10 -10 10 -5 0
-10 -4 -10 -10z"/>
<path d="M645 991 c-3 -5 -1 -12 5 -16 5 -3 10 1 10 9 0 18 -6 21 -15 7z"/>
<path d="M690 990 c0 -5 5 -10 10 -10 6 0 10 5 10 10 0 6 -4 10 -10 10 -5 0
-10 -4 -10 -10z"/>
<path d="M730 990 c0 -5 5 -10 10 -10 6 0 10 5 10 10 0 6 -4 10 -10 10 -5 0
-10 -4 -10 -10z"/>
<path d="M780 985 c-10 -12 -10 -15 4 -15 9 0 16 7 16 15 0 8 -2 15 -4 15 -2
0 -9 -7 -16 -15z"/>
<path d="M831 974 c0 -11 3 -14 6 -6 3 7 2 16 -1 19 -3 4 -6 -2 -5 -13z"/>
<path d="M1786 935 c-4 -19 -2 -43 3 -53 8 -13 10 -5 11 36 0 60 -5 67 -14 17z"/>
<path d="M586 951 c-4 -7 -5 -15 -2 -18 9 -9 19 4 14 18 -4 11 -6 11 -12 0z"/>
<path d="M706 945 c-3 -9 0 -15 9 -15 9 0 12 6 9 15 -4 8 -7 15 -9 15 -2 0 -5
-7 -9 -15z"/>
<path d="M661 934 c0 -11 3 -14 6 -6 3 7 2 16 -1 19 -3 4 -6 -2 -5 -13z"/>
<path d="M750 935 c0 -8 4 -15 10 -15 5 0 7 7 4 15 -4 8 -8 15 -10 15 -2 0 -4
-7 -4 -15z"/>
<path d="M790 931 c0 -6 5 -13 10 -16 6 -3 10 1 10 9 0 9 -4 16 -10 16 -5 0
-10 -4 -10 -9z"/>
<path d="M510 920 c0 -5 5 -10 10 -10 6 0 10 5 10 10 0 6 -4 10 -10 10 -5 0
-10 -4 -10 -10z"/>
<path d="M840 920 c0 -5 5 -10 10 -10 6 0 10 5 10 10 0 6 -4 10 -10 10 -5 0
-10 -4 -10 -10z"/>
<path d="M596 901 c-4 -7 -5 -15 -2 -18 9 -9 19 4 14 18 -4 11 -6 11 -12 0z"/>
<path d="M725 897 c-4 -10 -5 -21 -1 -24 10 -10 18 4 13 24 -4 17 -4 17 -12 0z"/>
<path d="M556 891 c-4 -7 -5 -15 -2 -18 9 -9 19 4 14 18 -4 11 -6 11 -12 0z"/>
<path d="M630 891 c0 -5 5 -13 10 -16 6 -3 10 -2 10 4 0 5 -4 13 -10 16 -5 3
-10 2 -10 -4z"/>
<path d="M670 885 c0 -8 4 -15 10 -15 5 0 7 7 4 15 -4 8 -8 15 -10 15 -2 0 -4
-7 -4 -15z"/>
<path d="M766 885 c-3 -9 0 -15 9 -15 9 0 12 6 9 15 -4 8 -7 15 -9 15 -2 0 -5
-7 -9 -15z"/>
<path d="M485 880 c-3 -5 -1 -10 4 -10 6 0 11 5 11 10 0 6 -2 10 -4 10 -3 0
-8 -4 -11 -10z"/>
<path d="M811 874 c0 -11 3 -14 6 -6 3 7 2 16 -1 19 -3 4 -6 -2 -5 -13z"/>
<path d="M856 883 c-11 -11 -6 -23 9 -23 8 0 15 4 15 9 0 13 -16 22 -24 14z"/>
<path d="M445 870 c-3 -5 -1 -10 4 -10 6 0 11 5 11 10 0 6 -2 10 -4 10 -3 0
-8 -4 -11 -10z"/>
<path d="M486 835 c-3 -8 -1 -15 4 -15 6 0 10 7 10 15 0 8 -2 15 -4 15 -2 0
-6 -7 -10 -15z"/>
<path d="M526 835 c-3 -8 -1 -15 4 -15 6 0 10 7 10 15 0 8 -2 15 -4 15 -2 0
-6 -7 -10 -15z"/>
<path d="M560 835 c0 -8 5 -15 10 -15 6 0 10 7 10 15 0 8 -4 15 -10 15 -5 0
-10 -7 -10 -15z"/>
<path d="M605 841 c-3 -5 -1 -12 5 -16 5 -3 10 1 10 9 0 18 -6 21 -15 7z"/>
<path d="M645 841 c-3 -5 -1 -12 5 -16 5 -3 10 1 10 9 0 18 -6 21 -15 7z"/>
<path d="M736 841 c-4 -7 -5 -15 -2 -18 9 -9 19 4 14 18 -4 11 -6 11 -12 0z"/>
<path d="M786 841 c-4 -7 -5 -15 -2 -18 9 -9 19 4 14 18 -4 11 -6 11 -12 0z"/>
<path d="M680 830 c0 -5 5 -10 10 -10 6 0 10 5 10 10 0 6 -4 10 -10 10 -5 0
-10 -4 -10 -10z"/>
<path d="M826 832 c-3 -6 -1 -14 5 -17 14 -9 20 -2 10 14 -6 8 -11 9 -15 3z"/>
<path d="M876 831 c-4 -7 -5 -15 -2 -18 9 -9 19 4 14 18 -4 11 -6 11 -12 0z"/>
<path d="M502 780 c0 -14 2 -19 5 -12 2 6 2 18 0 25 -3 6 -5 1 -5 -13z"/>
<path d="M575 787 c-4 -10 -5 -21 -1 -24 10 -10 18 4 13 24 -4 17 -4 17 -12 0z"/>
<path d="M617 786 c-6 -15 1 -26 15 -26 11 0 10 27 -1 34 -5 3 -11 0 -14 -8z"/>
<path d="M700 781 c0 -12 5 -21 10 -21 6 0 10 6 10 14 0 8 -4 18 -10 21 -5 3
-10 -3 -10 -14z"/>
<path d="M845 787 c-4 -10 -5 -21 -1 -24 10 -10 18 4 13 24 -4 17 -4 17 -12 0z"/>
<path d="M892 788 c-16 -16 -15 -28 3 -28 8 0 15 9 15 20 0 23 -2 24 -18 8z"/>
<path d="M456 775 c-3 -8 -1 -15 4 -15 6 0 10 7 10 15 0 8 -2 15 -4 15 -2 0
-6 -7 -10 -15z"/>
<path d="M661 774 c0 -11 3 -14 6 -6 3 7 2 16 -1 19 -3 4 -6 -2 -5 -13z"/>
<path d="M746 775 c-3 -9 0 -15 9 -15 9 0 12 6 9 15 -4 8 -7 15 -9 15 -2 0 -5
-7 -9 -15z"/>
<path d="M796 781 c-4 -7 -5 -15 -2 -18 9 -9 19 4 14 18 -4 11 -6 11 -12 0z"/>
<path d="M420 769 c0 -5 5 -7 10 -4 6 3 10 8 10 11 0 2 -4 4 -10 4 -5 0 -10
-5 -10 -11z"/>
<path d="M861 736 c-9 -10 -8 -15 3 -19 10 -4 14 0 13 14 -2 23 -1 23 -16 5z"/>
<path d="M905 740 c-4 -6 -2 -17 4 -23 15 -15 25 -2 13 19 -7 12 -11 13 -17 4z"/>
<path d="M586 725 c-9 -23 -8 -25 9 -25 17 0 19 9 6 28 -7 11 -10 10 -15 -3z"/>
<path d="M636 725 c-9 -23 -8 -25 9 -25 17 0 19 9 6 28 -7 11 -10 10 -15 -3z"/>
<path d="M680 720 c0 -11 4 -20 9 -20 5 0 7 9 4 20 -3 11 -7 20 -9 20 -2 0 -4
-9 -4 -20z"/>
<path d="M720 726 c0 -9 5 -16 10 -16 6 0 10 4 10 9 0 6 -4 13 -10 16 -5 3
-10 -1 -10 -9z"/>
<path d="M760 725 c0 -8 5 -15 10 -15 6 0 10 7 10 15 0 8 -4 15 -10 15 -5 0
-10 -7 -10 -15z"/>
<path d="M806 725 c-3 -9 0 -15 9 -15 9 0 12 6 9 15 -4 8 -7 15 -9 15 -2 0 -5
-7 -9 -15z"/>
<path d="M321 714 c0 -11 3 -14 6 -6 3 7 2 16 -1 19 -3 4 -6 -2 -5 -13z"/>
<path d="M391 714 c0 -11 3 -14 6 -6 3 7 2 16 -1 19 -3 4 -6 -2 -5 -13z"/>
<path d="M466 721 c-4 -7 -5 -15 -2 -18 9 -9 19 4 14 18 -4 11 -6 11 -12 0z"/>
<path d="M510 716 c0 -9 5 -16 10 -16 6 0 10 4 10 9 0 6 -4 13 -10 16 -5 3
-10 -1 -10 -9z"/>
<path d="M545 710 c3 -5 8 -10 11 -10 2 0 4 5 4 10 0 6 -5 10 -11 10 -5 0 -7
-4 -4 -10z"/>
<path d="M1686 683 c-8 -21 6 -36 26 -28 10 4 14 14 11 26 -6 23 -29 25 -37 2z"/>
<path d="M735 681 c-3 -5 -1 -12 5 -16 5 -3 10 1 10 9 0 18 -6 21 -15 7z"/>
<path d="M780 671 c0 -12 5 -21 10 -21 6 0 10 6 10 14 0 8 -4 18 -10 21 -5 3
-10 -3 -10 -14z"/>
<path d="M880 676 c0 -9 5 -16 10 -16 6 0 10 4 10 9 0 6 -4 13 -10 16 -5 3
-10 -1 -10 -9z"/>
<path d="M927 683 c-11 -11 -8 -23 6 -23 8 0 14 7 14 15 0 16 -9 19 -20 8z"/>
<path d="M331 664 c0 -11 3 -14 6 -6 3 7 2 16 -1 19 -3 4 -6 -2 -5 -13z"/>
<path d="M365 671 c-3 -5 -1 -12 5 -16 5 -3 10 1 10 9 0 18 -6 21 -15 7z"/>
<path d="M526 662 c-9 -26 -1 -41 13 -26 5 5 5 18 1 29 -7 19 -7 19 -14 -3z"/>
<path d="M605 667 c-4 -10 -5 -21 -1 -24 10 -10 18 4 13 24 -4 17 -4 17 -12 0z"/>
<path d="M650 660 c0 -11 5 -20 10 -20 6 0 10 9 10 20 0 11 -4 20 -10 20 -5 0
-10 -9 -10 -20z"/>
<path d="M830 666 c0 -9 5 -16 10 -16 6 0 10 4 10 9 0 6 -4 13 -10 16 -5 3
-10 -1 -10 -9z"/>
<path d="M476 655 c-3 -9 0 -15 9 -15 9 0 12 6 9 15 -4 8 -7 15 -9 15 -2 0 -5
-7 -9 -15z"/>
<path d="M560 661 c0 -6 4 -13 10 -16 6 -3 7 1 4 9 -7 18 -14 21 -14 7z"/>
<path d="M700 660 c0 -5 5 -10 11 -10 5 0 7 5 4 10 -3 6 -8 10 -11 10 -2 0 -4
-4 -4 -10z"/>
<path d="M295 650 c3 -5 8 -10 11 -10 2 0 4 5 4 10 0 6 -5 10 -11 10 -5 0 -7
-4 -4 -10z"/>
<path d="M950 631 c0 -12 5 -21 10 -21 6 0 10 6 10 14 0 8 -4 18 -10 21 -5 3
-10 -3 -10 -14z"/>
<path d="M850 626 c0 -8 4 -17 9 -20 5 -4 7 3 4 14 -6 23 -13 26 -13 6z"/>
<path d="M896 625 c-3 -9 0 -15 9 -15 16 0 20 16 6 24 -5 3 -11 -1 -15 -9z"/>
<path d="M265 620 c-3 -5 -1 -10 4 -10 6 0 11 5 11 10 0 6 -2 10 -4 10 -3 0
-8 -4 -11 -10z"/>
<path d="M306 621 c-4 -7 -5 -15 -2 -18 9 -9 19 4 14 18 -4 11 -6 11 -12 0z"/>
<path d="M621 614 c0 -11 3 -14 6 -6 3 7 2 16 -1 19 -3 4 -6 -2 -5 -13z"/>
<path d="M716 621 c-5 -7 -3 -18 3 -24 14 -14 20 -6 11 17 -5 15 -9 16 -14 7z"/>
<path d="M760 616 c0 -9 5 -16 10 -16 6 0 10 4 10 9 0 6 -4 13 -10 16 -5 3
-10 -1 -10 -9z"/>
<path d="M800 615 c0 -8 5 -15 10 -15 6 0 10 7 10 15 0 8 -4 15 -10 15 -5 0
-10 -7 -10 -15z"/>
<path d="M370 610 c0 -5 5 -10 11 -10 5 0 7 5 4 10 -3 6 -8 10 -11 10 -2 0 -4
-4 -4 -10z"/>
<path d="M580 605 c0 -8 4 -15 10 -15 5 0 7 7 4 15 -4 8 -8 15 -10 15 -2 0 -4
-7 -4 -15z"/>
<path d="M667 601 c-3 -14 0 -21 9 -21 16 0 18 9 5 28 -6 10 -10 9 -14 -7z"/>
<path d="M490 596 c0 -8 5 -18 10 -21 6 -3 10 3 10 14 0 12 -4 21 -10 21 -5 0
-10 -6 -10 -14z"/>
<path d="M536 595 c-4 -10 1 -15 14 -15 13 0 18 5 14 15 -4 8 -10 15 -14 15
-4 0 -10 -7 -14 -15z"/>
<path d="M450 584 c0 -8 5 -12 10 -9 6 4 8 11 5 16 -9 14 -15 11 -15 -7z"/>
<path d="M630 574 c0 -8 5 -12 10 -9 6 3 10 10 10 16 0 5 -4 9 -10 9 -5 0 -10
-7 -10 -16z"/>
<path d="M927 575 c-5 -10 0 -15 14 -15 12 0 19 5 17 12 -6 18 -25 20 -31 3z"/>
<path d="M980 581 c0 -5 5 -13 10 -16 6 -3 10 -2 10 4 0 5 -4 13 -10 16 -5 3
-10 2 -10 -4z"/>
<path d="M270 570 c0 -5 5 -10 10 -10 6 0 10 5 10 10 0 6 -4 10 -10 10 -5 0
-10 -4 -10 -10z"/>
<path d="M321 564 c0 -11 3 -14 6 -6 3 7 2 16 -1 19 -3 4 -6 -2 -5 -13z"/>
<path d="M350 570 c0 -5 5 -10 11 -10 5 0 7 5 4 10 -3 6 -8 10 -11 10 -2 0 -4
-4 -4 -10z"/>
<path d="M786 565 c-9 -23 -8 -25 9 -25 17 0 19 9 6 28 -7 11 -10 10 -15 -3z"/>
<path d="M830 563 c0 -13 5 -23 10 -23 13 0 13 11 0 30 -8 12 -10 11 -10 -7z"/>
<path d="M380 560 c0 -5 5 -10 11 -10 5 0 7 5 4 10 -3 6 -8 10 -11 10 -2 0 -4
-4 -4 -10z"/>
<path d="M420 560 c0 -5 5 -10 11 -10 5 0 7 5 4 10 -3 6 -8 10 -11 10 -2 0 -4
-4 -4 -10z"/>
<path d="M737 550 c-4 -15 0 -20 15 -20 18 0 19 2 7 18 -7 9 -14 18 -15 20 -1
1 -4 -6 -7 -18z"/>
<path d="M470 538 c0 -16 5 -28 10 -28 13 0 13 20 0 40 -8 12 -10 9 -10 -12z"/>
<path d="M560 544 c0 -8 5 -12 10 -9 6 3 10 10 10 16 0 5 -4 9 -10 9 -5 0 -10
-7 -10 -16z"/>
<path d="M690 540 c0 -11 6 -20 14 -20 9 0 12 7 9 20 -3 11 -9 20 -14 20 -5 0
-9 -9 -9 -20z"/>
<path d="M38 532 c-35 -16 -38 -20 -38 -58 0 -25 6 -47 15 -54 20 -17 20 -80
0 -80 -19 0 -20 -54 -2 -93 11 -26 15 -27 58 -22 29 4 49 3 54 -4 10 -17 35
-13 64 11 44 38 35 52 -49 86 -14 6 -33 13 -42 16 -12 4 -18 16 -18 38 0 27
-6 36 -32 49 -45 22 -44 34 1 48 39 11 109 5 180 -15 19 -6 22 -4 19 12 -2 10
-10 18 -18 16 -11 -3 -11 0 0 13 20 24 0 38 -34 26 -21 -9 -34 -7 -64 9 -43
23 -45 23 -94 2z"/>
<path d="M516 541 c-4 -7 -5 -15 -2 -18 9 -9 19 4 14 18 -4 11 -6 11 -12 0z"/>
<path d="M650 535 c0 -8 5 -15 10 -15 6 0 10 7 10 15 0 8 -4 15 -10 15 -5 0
-10 -7 -10 -15z"/>
<path d="M965 530 c-9 -28 0 -35 26 -24 20 9 20 10 1 27 -20 18 -20 18 -27 -3z"/>
<path d="M255 527 c-4 -10 -5 -21 -1 -24 10 -10 18 4 13 24 -4 17 -4 17 -12 0z"/>
<path d="M326 525 c-3 -8 -1 -15 4 -15 6 0 10 7 10 15 0 8 -2 15 -4 15 -2 0
-6 -7 -10 -15z"/>
<path d="M621 524 c0 -11 3 -14 6 -6 3 7 2 16 -1 19 -3 4 -6 -2 -5 -13z"/>
<path d="M285 521 c-3 -5 -1 -12 5 -16 5 -3 10 1 10 9 0 18 -6 21 -15 7z"/>
<path d="M365 521 c-3 -5 -1 -12 5 -16 5 -3 10 1 10 9 0 18 -6 21 -15 7z"/>
<path d="M860 511 c0 -11 4 -21 9 -21 18 0 21 18 6 30 -13 10 -15 9 -15 -9z"/>
<path d="M910 516 c0 -9 5 -16 10 -16 6 0 10 4 10 9 0 6 -4 13 -10 16 -5 3
-10 -1 -10 -9z"/>
<path d="M390 510 c0 -5 5 -10 10 -10 6 0 10 5 10 10 0 6 -4 10 -10 10 -5 0
-10 -4 -10 -10z"/>
<path d="M441 504 c0 -11 3 -14 6 -6 3 7 2 16 -1 19 -3 4 -6 -2 -5 -13z"/>
<path d="M576 504 c-9 -22 -8 -24 9 -18 8 4 15 12 15 20 0 19 -16 18 -24 -2z"/>
<path d="M765 500 c-3 -5 -1 -10 4 -10 6 0 11 5 11 10 0 6 -2 10 -4 10 -3 0
-8 -4 -11 -10z"/>
<path d="M820 501 c0 -6 5 -13 10 -16 6 -3 10 1 10 9 0 9 -4 16 -10 16 -5 0
-10 -4 -10 -9z"/>
<path d="M490 480 c-9 -16 -8 -20 5 -20 8 0 15 9 15 20 0 11 -2 20 -5 20 -2 0
-9 -9 -15 -20z"/>
<path d="M536 491 c-4 -7 -5 -15 -2 -18 9 -9 19 4 14 18 -4 11 -6 11 -12 0z"/>
<path d="M720 486 c0 -9 5 -16 10 -16 6 0 10 4 10 9 0 6 -4 13 -10 16 -5 3
-10 -1 -10 -9z"/>
<path d="M1005 479 c-4 -11 -4 -23 -2 -26 9 -8 27 7 27 22 0 23 -18 27 -25 4z"/>
<path d="M336 475 c-3 -8 -1 -15 4 -15 6 0 10 7 10 15 0 8 -2 15 -4 15 -2 0
-6 -7 -10 -15z"/>
<path d="M602 470 c-10 -27 2 -40 20 -22 7 7 7 16 0 29 -10 17 -11 16 -20 -7z"/>
<path d="M640 481 c0 -5 5 -13 10 -16 6 -3 10 -2 10 4 0 5 -4 13 -10 16 -5 3
-10 2 -10 -4z"/>
<path d="M680 481 c0 -6 5 -13 10 -16 6 -3 10 1 10 9 0 9 -4 16 -10 16 -5 0
-10 -4 -10 -9z"/>
<path d="M266 471 c-4 -7 -5 -15 -2 -18 9 -9 19 4 14 18 -4 11 -6 11 -12 0z"/>
<path d="M296 471 c-4 -7 -5 -15 -2 -18 9 -9 19 4 14 18 -4 11 -6 11 -12 0z"/>
<path d="M381 464 c0 -11 3 -14 6 -6 3 7 2 16 -1 19 -3 4 -6 -2 -5 -13z"/>
<path d="M411 464 c0 -11 3 -14 6 -6 3 7 2 16 -1 19 -3 4 -6 -2 -5 -13z"/>
<path d="M451 464 c0 -11 3 -14 6 -6 3 7 2 16 -1 19 -3 4 -6 -2 -5 -13z"/>
<path d="M790 470 c0 -5 5 -10 11 -10 5 0 7 5 4 10 -3 6 -8 10 -11 10 -2 0 -4
-4 -4 -10z"/>
<path d="M900 461 c0 -12 6 -21 15 -21 8 0 15 4 15 9 0 5 -7 14 -15 21 -13 10
-15 9 -15 -9z"/>
<path d="M950 465 c0 -8 4 -15 10 -15 5 0 7 7 4 15 -4 8 -8 15 -10 15 -2 0 -4
-7 -4 -15z"/>
<path d="M555 447 c-4 -10 -5 -21 -1 -24 10 -10 18 4 13 24 -4 17 -4 17 -12 0z"/>
<path d="M750 444 c0 -8 5 -12 10 -9 6 4 8 11 5 16 -9 14 -15 11 -15 -7z"/>
<path d="M855 450 c-3 -5 1 -10 10 -10 9 0 13 5 10 10 -3 6 -8 10 -10 10 -2 0
-7 -4 -10 -10z"/>
<path d="M505 440 c-8 -13 -1 -24 14 -19 6 3 7 10 2 18 -6 10 -10 10 -16 1z"/>
<path d="M710 436 c0 -9 5 -16 10 -16 6 0 10 4 10 9 0 6 -4 13 -10 16 -5 3
-10 -1 -10 -9z"/>
<path d="M810 441 c0 -6 5 -13 10 -16 6 -3 10 1 10 9 0 9 -4 16 -10 16 -5 0
-10 -4 -10 -9z"/>
<path d="M1032 438 c-18 -18 -15 -28 8 -28 21 0 25 7 12 27 -6 10 -11 10 -20
1z"/>
<path d="M247 426 c-4 -10 -5 -21 -2 -24 9 -9 17 6 13 25 -3 17 -4 17 -11 -1z"/>
<path d="M311 424 c0 -11 3 -14 6 -6 3 7 2 16 -1 19 -3 4 -6 -2 -5 -13z"/>
<path d="M345 431 c-3 -5 -1 -12 5 -16 5 -3 10 1 10 9 0 18 -6 21 -15 7z"/>
<path d="M627 419 c-7 -28 -7 -28 16 -20 15 6 16 9 4 25 -13 18 -14 18 -20 -5z"/>
<path d="M670 426 c0 -9 5 -16 10 -16 6 0 10 4 10 9 0 6 -4 13 -10 16 -5 3
-10 -1 -10 -9z"/>
<path d="M281 414 c0 -11 3 -14 6 -6 3 7 2 16 -1 19 -3 4 -6 -2 -5 -13z"/>
<path d="M770 414 c0 -8 5 -12 10 -9 6 3 10 10 10 16 0 5 -4 9 -10 9 -5 0 -10
-7 -10 -16z"/>
<path d="M930 415 c0 -8 5 -15 10 -15 6 0 10 7 10 15 0 8 -4 15 -10 15 -5 0
-10 -7 -10 -15z"/>
<path d="M976 415 c-3 -9 0 -15 9 -15 9 0 12 6 9 15 -4 8 -7 15 -9 15 -2 0 -5
-7 -9 -15z"/>
<path d="M466 395 c-3 -8 -1 -15 4 -15 6 0 10 7 10 15 0 8 -2 15 -4 15 -2 0
-6 -7 -10 -15z"/>
<path d="M574 397 c-8 -22 -1 -30 21 -25 14 3 14 5 1 23 -14 19 -15 19 -22 2z"/>
<path d="M730 394 c0 -8 5 -12 10 -9 6 3 10 10 10 16 0 5 -4 9 -10 9 -5 0 -10
-7 -10 -16z"/>
<path d="M885 400 c-3 -5 1 -10 10 -10 9 0 13 5 10 10 -3 6 -8 10 -10 10 -2 0
-7 -4 -10 -10z"/>
<path d="M355 391 c-3 -5 -1 -12 5 -16 5 -3 10 1 10 9 0 18 -6 21 -15 7z"/>
<path d="M527 393 c-12 -12 -7 -33 8 -33 17 0 19 9 7 28 -5 7 -11 9 -15 5z"/>
<path d="M700 390 c0 -5 5 -10 11 -10 5 0 7 5 4 10 -3 6 -8 10 -11 10 -2 0 -4
-4 -4 -10z"/>
<path d="M795 390 c-4 -7 -2 -16 6 -21 18 -11 23 -4 11 17 -7 12 -11 13 -17 4z"/>
<path d="M840 390 c0 -5 5 -10 10 -10 6 0 10 5 10 10 0 6 -4 10 -10 10 -5 0
-10 -4 -10 -10z"/>
<path d="M1061 393 c-1 -6 -4 -18 -7 -26 -3 -9 3 -16 15 -20 17 -4 19 -2 12
11 -4 10 -11 24 -14 32 -3 8 -6 10 -6 3z"/>
<path d="M257 376 c-4 -10 -5 -21 -2 -24 9 -9 17 6 13 25 -3 17 -4 17 -11 -1z"/>
<path d="M320 380 c0 -5 5 -10 10 -10 6 0 10 5 10 10 0 6 -4 10 -10 10 -5 0
-10 -4 -10 -10z"/>
<path d="M654 376 c-4 -9 -5 -19 -2 -21 2 -2 10 0 18 5 12 7 12 12 3 21 -10
10 -14 9 -19 -5z"/>
<path d="M956 381 c-4 -7 -5 -15 -2 -18 9 -9 19 4 14 18 -4 11 -6 11 -12 0z"/>
<path d="M290 370 c0 -5 5 -10 11 -10 5 0 7 5 4 10 -3 6 -8 10 -11 10 -2 0 -4
-4 -4 -10z"/>
<path d="M756 365 c-3 -8 -1 -15 4 -15 13 0 22 18 11 24 -5 3 -11 -1 -15 -9z"/>
<path d="M1000 366 c0 -9 7 -16 16 -16 9 0 14 5 12 12 -6 18 -28 21 -28 4z"/>
<path d="M905 360 c-3 -5 -1 -10 4 -10 6 0 11 5 11 10 0 6 -2 10 -4 10 -3 0
-8 -4 -11 -10z"/>
<path d="M365 350 c-3 -5 -1 -10 4 -10 6 0 11 5 11 10 0 6 -2 10 -4 10 -3 0
-8 -4 -11 -10z"/>
<path d="M480 350 c0 -5 5 -10 10 -10 6 0 10 5 10 10 0 6 -4 10 -10 10 -5 0
-10 -4 -10 -10z"/>
<path d="M604 345 c-4 -11 -9 -23 -11 -27 -6 -11 9 -10 26 1 10 6 11 13 3 27
-10 18 -11 18 -18 -1z"/>
<path d="M865 350 c-3 -5 1 -10 10 -10 9 0 13 5 10 10 -3 6 -8 10 -10 10 -2 0
-7 -4 -10 -10z"/>
<path d="M335 340 c3 -5 8 -10 11 -10 2 0 4 5 4 10 0 6 -5 10 -11 10 -5 0 -7
-4 -4 -10z"/>
<path d="M405 340 c3 -5 8 -10 11 -10 2 0 4 5 4 10 0 6 -5 10 -11 10 -5 0 -7
-4 -4 -10z"/>
<path d="M535 340 c-3 -5 -2 -10 4 -10 5 0 13 5 16 10 3 6 2 10 -4 10 -5 0
-13 -4 -16 -10z"/>
<path d="M676 343 c-11 -11 -6 -23 9 -23 8 0 15 4 15 9 0 13 -16 22 -24 14z"/>
<path d="M776 334 c-9 -22 -8 -24 9 -24 8 0 15 6 15 14 0 22 -17 28 -24 10z"/>
<path d="M820 335 c0 -8 7 -15 16 -15 14 0 14 3 4 15 -7 8 -14 15 -16 15 -2 0
-4 -7 -4 -15z"/>
<path d="M266 325 c-3 -8 -1 -15 4 -15 6 0 10 7 10 15 0 8 -2 15 -4 15 -2 0
-6 -7 -10 -15z"/>
<path d="M300 330 c0 -5 5 -10 10 -10 6 0 10 5 10 10 0 6 -4 10 -10 10 -5 0
-10 -4 -10 -10z"/>
<path d="M970 325 c0 -8 5 -15 10 -15 6 0 10 7 10 15 0 8 -4 15 -10 15 -5 0
-10 -7 -10 -15z"/>
<path d="M496 321 c-4 -7 -5 -15 -2 -18 9 -9 19 4 14 18 -4 11 -6 11 -12 0z"/>
<path d="M556 314 c-8 -22 1 -31 16 -16 9 9 9 15 1 23 -7 7 -12 5 -17 -7z"/>
<path d="M741 314 c0 -11 3 -14 6 -6 3 7 2 16 -1 19 -3 4 -6 -2 -5 -13z"/>
<path d="M920 320 c0 -5 5 -10 10 -10 6 0 10 5 10 10 0 6 -4 10 -10 10 -5 0
-10 -4 -10 -10z"/>
<path d="M1037 323 c-12 -12 -7 -33 8 -33 17 0 19 9 7 28 -5 7 -11 9 -15 5z"/>
<path d="M351 304 c0 -11 3 -14 6 -6 3 7 2 16 -1 19 -3 4 -6 -2 -5 -13z"/>
<path d="M380 306 c0 -9 5 -16 10 -16 6 0 10 4 10 9 0 6 -4 13 -10 16 -5 3
-10 -1 -10 -9z"/>
<path d="M460 310 c0 -5 5 -10 11 -10 5 0 7 5 4 10 -3 6 -8 10 -11 10 -2 0 -4
-4 -4 -10z"/>
<path d="M885 310 c-3 -5 -1 -10 4 -10 6 0 11 5 11 10 0 6 -2 10 -4 10 -3 0
-8 -4 -11 -10z"/>
<path d="M1091 304 c0 -11 3 -14 6 -6 3 7 2 16 -1 19 -3 4 -6 -2 -5 -13z"/>
<path d="M625 299 c-4 -6 -5 -13 -2 -16 7 -7 27 6 27 18 0 12 -17 12 -25 -2z"/>
<path d="M695 300 c-8 -13 -1 -24 14 -19 6 3 7 10 2 18 -6 10 -10 10 -16 1z"/>
<path d="M807 296 c-4 -10 -5 -21 -2 -24 9 -9 17 6 13 25 -3 17 -4 17 -11 -1z"/>
<path d="M840 294 c0 -8 5 -12 10 -9 6 3 10 10 10 16 0 5 -4 9 -10 9 -5 0 -10
-7 -10 -16z"/>
<path d="M276 291 c-4 -7 -5 -15 -2 -18 9 -9 19 4 14 18 -4 11 -6 11 -12 0z"/>
<path d="M315 290 c3 -5 8 -10 11 -10 2 0 4 5 4 10 0 6 -5 10 -11 10 -5 0 -7
-4 -4 -10z"/>
<path d="M985 290 c-3 -5 -1 -10 4 -10 6 0 11 5 11 10 0 6 -2 10 -4 10 -3 0
-8 -4 -11 -10z"/>
<path d="M476 281 c-4 -7 -5 -15 -2 -18 9 -9 19 4 14 18 -4 11 -6 11 -12 0z"/>
<path d="M574 276 c-8 -22 3 -33 18 -18 9 9 9 15 0 24 -9 9 -13 7 -18 -6z"/>
<path d="M756 282 c-3 -6 -1 -14 5 -17 14 -9 20 -2 10 14 -6 8 -11 9 -15 3z"/>
<path d="M900 275 c0 -8 5 -15 10 -15 6 0 10 7 10 15 0 8 -4 15 -10 15 -5 0
-10 -7 -10 -15z"/>
<path d="M945 281 c-3 -5 -1 -12 5 -16 5 -3 10 1 10 9 0 18 -6 21 -15 7z"/>
<path d="M241 264 c0 -11 3 -14 6 -6 3 7 2 16 -1 19 -3 4 -6 -2 -5 -13z"/>
<path d="M401 264 c0 -11 3 -14 6 -6 3 7 2 16 -1 19 -3 4 -6 -2 -5 -13z"/>
<path d="M435 271 c-3 -5 -1 -12 5 -16 5 -3 10 1 10 9 0 18 -6 21 -15 7z"/>
<path d="M645 269 c-4 -6 -5 -13 -2 -16 7 -7 27 6 27 18 0 12 -17 12 -25 -2z"/>
<path d="M860 266 c0 -9 5 -16 10 -16 6 0 10 4 10 9 0 6 -4 13 -10 16 -5 3
-10 -1 -10 -9z"/>
<path d="M1100 266 c0 -9 5 -16 10 -16 6 0 10 4 10 9 0 6 -4 13 -10 16 -5 3
-10 -1 -10 -9z"/>
<path d="M326 255 c-3 -8 -1 -15 4 -15 6 0 10 7 10 15 0 8 -2 15 -4 15 -2 0
-6 -7 -10 -15z"/>
<path d="M360 260 c0 -5 5 -10 10 -10 6 0 10 5 10 10 0 6 -4 10 -10 10 -5 0
-10 -4 -10 -10z"/>
<path d="M532 250 c0 -14 2 -19 5 -12 2 6 2 18 0 25 -3 6 -5 1 -5 -13z"/>
<path d="M710 255 c0 -8 5 -15 10 -15 6 0 10 7 10 15 0 8 -4 15 -10 15 -5 0
-10 -7 -10 -15z"/>
<path d="M827 263 c-4 -3 -7 -11 -7 -17 0 -6 5 -5 12 2 6 6 9 14 7 17 -3 3 -9
2 -12 -2z"/>
<path d="M1050 255 c0 -8 5 -15 10 -15 6 0 10 7 10 15 0 8 -4 15 -10 15 -5 0
-10 -7 -10 -15z"/>
<path d="M1006 251 c-4 -5 -2 -12 3 -15 5 -4 12 -2 15 3 4 5 2 12 -3 15 -5 4
-12 2 -15 -3z"/>
<path d="M290 234 c0 -8 5 -12 10 -9 6 3 10 10 10 16 0 5 -4 9 -10 9 -5 0 -10
-7 -10 -16z"/>
<path d="M496 241 c-4 -7 -5 -15 -2 -18 9 -9 19 4 14 18 -4 11 -6 11 -12 0z"/>
<path d="M597 230 c-4 -15 0 -20 14 -20 17 0 18 3 9 20 -6 11 -12 20 -14 20
-2 0 -6 -9 -9 -20z"/>
<path d="M667 235 c-10 -24 -9 -25 10 -18 12 5 15 2 10 -10 -3 -9 -2 -17 3
-17 18 0 18 16 1 39 -16 21 -19 21 -24 6z"/>
<path d="M775 240 c-4 -7 -2 -16 5 -20 7 -4 9 -13 6 -19 -4 -6 0 -11 8 -11 19
0 19 1 2 35 -9 18 -16 23 -21 15z"/>
<path d="M960 240 c0 -5 5 -10 10 -10 6 0 10 5 10 10 0 6 -4 10 -10 10 -5 0
-10 -4 -10 -10z"/>
<path d="M255 230 c-3 -5 -1 -10 4 -10 6 0 11 5 11 10 0 6 -2 10 -4 10 -3 0
-8 -4 -11 -10z"/>
<path d="M450 231 c0 -5 5 -13 10 -16 6 -3 10 -2 10 4 0 5 -4 13 -10 16 -5 3
-10 2 -10 -4z"/>
<path d="M836 231 c-4 -7 -5 -15 -2 -18 9 -9 19 4 14 18 -4 11 -6 11 -12 0z"/>
<path d="M876 231 c-4 -7 -5 -15 -2 -18 9 -9 19 4 14 18 -4 11 -6 11 -12 0z"/>
<path d="M920 230 c0 -5 5 -10 11 -10 5 0 7 5 4 10 -3 6 -8 10 -11 10 -2 0 -4
-4 -4 -10z"/>
<path d="M380 215 c0 -8 5 -15 10 -15 6 0 10 7 10 15 0 8 -4 15 -10 15 -5 0
-10 -7 -10 -15z"/>
<path d="M415 220 c3 -5 8 -10 11 -10 2 0 4 5 4 10 0 6 -5 10 -11 10 -5 0 -7
-4 -4 -10z"/>
<path d="M551 214 c0 -11 3 -14 6 -6 3 7 2 16 -1 19 -3 4 -6 -2 -5 -13z"/>
<path d="M312 200 c0 -14 2 -19 5 -12 2 6 2 18 0 25 -3 6 -5 1 -5 -13z"/>
<path d="M340 205 c0 -8 5 -15 10 -15 6 0 10 7 10 15 0 8 -4 15 -10 15 -5 0
-10 -7 -10 -15z"/>
<path d="M516 204 c-9 -23 -8 -24 11 -17 13 5 15 2 11 -15 -4 -15 -2 -22 8
-22 19 0 18 17 -5 46 -16 20 -20 21 -25 8z"/>
<path d="M976 205 c-9 -23 -8 -25 9 -25 17 0 19 9 6 28 -7 11 -10 10 -15 -3z"/>
<path d="M1025 210 c-8 -13 -1 -24 14 -19 6 3 7 10 2 18 -6 10 -10 10 -16 1z"/>
<path d="M1070 205 c0 -8 5 -15 10 -15 6 0 10 7 10 15 0 8 -4 15 -10 15 -5 0
-10 -7 -10 -15z"/>
<path d="M1117 206 c-6 -15 1 -26 15 -26 4 0 8 9 8 20 0 23 -15 27 -23 6z"/>
<path d="M270 185 c0 -8 5 -15 10 -15 6 0 10 -9 10 -20 0 -11 5 -20 10 -20 13
0 13 10 -2 43 -14 29 -28 36 -28 12z"/>
<path d="M436 185 c-3 -9 0 -15 9 -15 9 0 12 6 9 15 -4 8 -7 15 -9 15 -2 0 -5
-7 -9 -15z"/>
<path d="M846 185 c-3 -9 0 -15 9 -15 9 0 12 6 9 15 -4 8 -7 15 -9 15 -2 0 -5
-7 -9 -15z"/>
<path d="M890 190 c0 -5 5 -10 11 -10 5 0 7 5 4 10 -3 6 -8 10 -11 10 -2 0 -4
-4 -4 -10z"/>
<path d="M930 190 c0 -5 5 -10 11 -10 5 0 7 5 4 10 -3 6 -8 10 -11 10 -2 0 -4
-4 -4 -10z"/>
<path d="M406 181 c-4 -7 -5 -15 -2 -18 9 -9 19 4 14 18 -4 11 -6 11 -12 0z"/>
<path d="M570 181 c0 -5 5 -13 10 -16 6 -3 10 -2 10 4 0 5 -4 13 -10 16 -5 3
-10 2 -10 -4z"/>
<path d="M630 170 c0 -11 7 -20 15 -20 17 0 18 2 9 24 -9 23 -24 20 -24 -4z"/>
<path d="M705 178 c-9 -23 -3 -39 11 -30 7 4 8 15 4 27 -7 18 -9 18 -15 3z"/>
<path d="M745 180 c-4 -6 -2 -17 4 -23 15 -15 25 -2 13 19 -7 12 -11 13 -17 4z"/>
<path d="M367 166 c-3 -8 -2 -18 4 -22 16 -9 22 2 11 21 -8 15 -10 16 -15 1z"/>
<path d="M806 171 c-4 -7 -5 -15 -2 -18 9 -9 19 4 14 18 -4 11 -6 11 -12 0z"/>
<path d="M330 153 c0 -13 5 -23 10 -23 13 0 13 11 0 30 -8 12 -10 11 -10 -7z"/>
<path d="M906 161 c-4 -7 -5 -15 -2 -18 9 -9 19 4 14 18 -4 11 -6 11 -12 0z"/>
<path d="M944 159 c-3 -6 -1 -16 5 -22 8 -8 11 -5 11 11 0 24 -5 28 -16 11z"/>
<path d="M1045 160 c-8 -13 -1 -24 14 -19 6 3 7 10 2 18 -6 10 -10 10 -16 1z"/>
<path d="M1087 156 c-6 -16 2 -28 14 -20 12 7 11 34 0 34 -5 0 -11 -6 -14 -14z"/>
<path d="M1137 163 c-12 -12 -7 -33 7 -33 9 0 14 9 13 20 -1 20 -9 25 -20 13z"/>
<path d="M0 141 c0 -32 22 -40 109 -38 108 3 117 19 22 41 -96 22 -131 21
-131 -3z"/>
<path d="M460 148 c0 -9 5 -20 11 -23 17 -11 20 0 4 21 -13 17 -14 17 -15 2z"/>
<path d="M500 145 c0 -8 4 -15 10 -15 5 0 7 7 4 15 -4 8 -8 15 -10 15 -2 0 -4
-7 -4 -15z"/>
<path d="M990 145 c0 -8 5 -15 10 -15 6 0 10 7 10 15 0 8 -4 15 -10 15 -5 0
-10 -7 -10 -15z"/>
<path d="M260 141 c0 -5 5 -13 10 -16 6 -3 10 -2 10 4 0 5 -4 13 -10 16 -5 3
-10 2 -10 -4z"/>
<path d="M567 144 c-10 -11 -8 -44 2 -44 6 0 13 4 16 10 8 12 -9 43 -18 34z"/>
<path d="M860 134 c0 -8 5 -12 10 -9 6 3 10 10 10 16 0 5 -4 9 -10 9 -5 0 -10
-7 -10 -16z"/>
<path d="M230 126 c0 -9 5 -16 10 -16 6 0 10 4 10 9 0 6 -4 13 -10 16 -5 3
-10 -1 -10 -9z"/>
<path d="M430 131 c0 -5 5 -13 10 -16 6 -3 10 -2 10 4 0 5 -4 13 -10 16 -5 3
-10 2 -10 -4z"/>
<path d="M610 131 c0 -5 5 -13 10 -16 6 -3 10 -2 10 4 0 5 -4 13 -10 16 -5 3
-10 2 -10 -4z"/>
<path d="M725 127 c-8 -19 -2 -31 13 -26 5 2 6 13 2 24 -7 19 -8 19 -15 2z"/>
<path d="M766 125 c-3 -9 0 -15 9 -15 16 0 20 16 6 24 -5 3 -11 -1 -15 -9z"/>
<path d="M816 131 c-4 -5 -2 -12 3 -15 5 -4 12 -2 15 3 4 5 2 12 -3 15 -5 4
-12 2 -15 -3z"/>
<path d="M392 118 c2 -6 10 -14 16 -16 7 -2 10 2 6 12 -7 18 -28 22 -22 4z"/>
<path d="M660 120 c0 -5 5 -10 10 -10 6 0 10 5 10 10 0 6 -4 10 -10 10 -5 0
-10 -4 -10 -10z"/>
<path d="M320 106 c0 -9 5 -16 10 -16 6 0 10 4 10 9 0 6 -4 13 -10 16 -5 3
-10 -1 -10 -9z"/>
<path d="M352 108 c2 -6 10 -14 16 -16 7 -2 10 2 6 12 -7 18 -28 22 -22 4z"/>
<path d="M917 106 c-3 -8 1 -17 9 -20 8 -3 14 1 14 9 0 20 -17 28 -23 11z"/>
<path d="M965 107 c-8 -19 -2 -31 13 -26 5 2 6 13 2 24 -7 19 -8 19 -15 2z"/>
<path d="M1060 100 c0 -11 7 -20 15 -20 17 0 18 2 9 24 -9 23 -24 20 -24 -4z"/>
<path d="M1115 107 c-4 -10 -5 -21 -1 -24 10 -10 18 4 13 24 -4 17 -4 17 -12
0z"/>
<path d="M285 101 c-3 -5 -1 -12 5 -16 5 -3 10 1 10 9 0 18 -6 21 -15 7z"/>
<path d="M490 91 c0 -25 8 -26 34 -6 11 8 16 18 11 22 -4 5 -10 2 -12 -5 -4
-10 -8 -10 -19 -1 -11 9 -14 7 -14 -10z"/>
<path d="M866 95 c-3 -9 0 -15 9 -15 8 0 15 7 15 15 0 8 -4 15 -9 15 -5 0 -11
-7 -15 -15z"/>
<path d="M1006 101 c-4 -7 -5 -15 -2 -18 9 -9 19 4 14 18 -4 11 -6 11 -12 0z"/>
<path d="M1155 100 c-8 -13 -1 -24 14 -19 6 3 7 10 2 18 -6 10 -10 10 -16 1z"/>
<path d="M250 85 c0 -8 5 -15 10 -15 6 0 10 7 10 15 0 8 -4 15 -10 15 -5 0
-10 -7 -10 -15z"/>
<path d="M455 91 c-3 -5 -1 -12 5 -16 5 -3 10 1 10 9 0 18 -6 21 -15 7z"/>
<path d="M588 82 c-5 -18 7 -32 28 -32 8 0 4 17 -9 35 -13 17 -14 17 -19 -3z"/>
<path d="M640 87 c0 -19 16 -31 24 -18 3 5 -1 14 -9 21 -12 10 -15 10 -15 -3z"/>
<path d="M686 85 c-8 -22 -3 -28 19 -23 14 3 14 5 2 22 -13 18 -14 18 -21 1z"/>
<path d="M785 89 c-10 -15 3 -25 16 -12 7 7 7 13 1 17 -6 3 -14 1 -17 -5z"/>
<path d="M826 91 c-4 -5 -2 -12 3 -15 5 -4 12 -2 15 3 4 5 2 12 -3 15 -5 4
-12 2 -15 -3z"/>
<path d="M420 76 c0 -9 5 -16 10 -16 6 0 10 4 10 9 0 6 -4 13 -10 16 -5 3 -10
-1 -10 -9z"/>
<path d="M736 81 c-4 -5 -2 -12 3 -15 5 -4 12 -2 15 3 4 5 2 12 -3 15 -5 4
-12 2 -15 -3z"/>
<path d="M385 70 c-8 -13 -1 -24 14 -19 6 3 7 10 2 18 -6 10 -10 10 -16 1z"/>
<path d="M310 56 c0 -9 5 -16 10 -16 6 0 10 4 10 9 0 6 -4 13 -10 16 -5 3 -10
-1 -10 -9z"/>
<path d="M340 56 c0 -9 7 -16 16 -16 17 0 14 22 -4 28 -7 2 -12 -3 -12 -12z"/>
<path d="M882 50 c-11 -17 -10 -20 8 -20 21 0 25 7 12 27 -6 9 -11 7 -20 -7z"/>
<path d="M935 57 c-8 -19 -2 -31 13 -26 5 2 6 13 2 24 -7 19 -8 19 -15 2z"/>
<path d="M1080 50 c-9 -17 -8 -20 9 -20 14 0 18 5 14 20 -3 11 -7 20 -9 20 -2
0 -8 -9 -14 -20z"/>
<path d="M1174 59 c-3 -6 -1 -16 5 -22 8 -8 11 -5 11 11 0 24 -5 28 -16 11z"/>
<path d="M270 40 c0 -19 11 -26 23 -14 8 8 -3 34 -14 34 -5 0 -9 -9 -9 -20z"/>
<path d="M480 43 c0 -13 5 -23 10 -23 13 0 13 11 0 30 -8 12 -10 11 -10 -7z"/>
<path d="M520 44 c0 -12 7 -27 15 -34 20 -17 21 9 0 36 -14 19 -14 19 -15 -2z"/>
<path d="M795 50 c-8 -13 -1 -24 14 -19 6 3 7 10 2 18 -6 10 -10 10 -16 1z"/>
<path d="M837 46 c-3 -8 -2 -18 3 -21 13 -8 20 9 11 24 -6 10 -10 9 -14 -3z"/>
<path d="M977 54 c-8 -8 1 -24 14 -24 5 0 9 7 9 15 0 15 -12 20 -23 9z"/>
<path d="M1017 46 c-3 -8 1 -17 9 -20 9 -4 14 1 14 14 0 23 -15 27 -23 6z"/>
<path d="M1130 45 c0 -8 7 -15 15 -15 9 0 12 6 9 15 -4 8 -10 15 -15 15 -5 0
-9 -7 -9 -15z"/>
<path d="M440 36 c0 -9 5 -16 10 -16 6 0 10 4 10 9 0 6 -4 13 -10 16 -5 3 -10
-1 -10 -9z"/>
<path d="M660 30 c0 -19 11 -26 23 -14 8 8 -3 34 -14 34 -5 0 -9 -9 -9 -20z"/>
<path d="M710 30 c0 -11 5 -20 10 -20 6 0 10 9 10 20 0 11 -4 20 -10 20 -5 0
-10 -9 -10 -20z"/>
<path d="M750 36 c0 -9 5 -16 10 -16 6 0 10 4 10 9 0 6 -4 13 -10 16 -5 3 -10
-1 -10 -9z"/>
<path d="M410 25 c0 -8 4 -15 10 -15 5 0 7 7 4 15 -4 8 -8 15 -10 15 -2 0 -4
-7 -4 -15z"/>
<path d="M620 26 c0 -9 5 -16 10 -16 6 0 10 4 10 9 0 6 -4 13 -10 16 -5 3 -10
-1 -10 -9z"/>
<path d="M1672 20 c-12 -19 -10 -20 40 -19 40 1 47 3 28 8 -14 4 -24 13 -22
19 4 20 -32 13 -46 -8z"/>
<path d="M23 22 c-13 -2 -23 -8 -23 -13 0 -5 39 -9 88 -8 53 0 79 3 67 8 -25
10 -103 18 -132 13z"/>
<path d="M370 15 c0 -8 7 -15 15 -15 9 0 12 6 9 15 -8 19 -24 19 -24 0z"/>
<path d="M570 16 c0 -9 5 -16 10 -16 6 0 10 4 10 9 0 6 -4 13 -10 16 -5 3 -10
-1 -10 -9z"/>
<path d="M1263 20 c-13 -5 -23 -12 -23 -15 0 -3 42 -5 93 -5 55 0 86 4 77 9
-24 14 -123 21 -147 11z"/>
<path d="M235 10 c-3 -5 -1 -10 4 -10 6 0 11 5 11 10 0 6 -2 10 -4 10 -3 0 -8
-4 -11 -10z"/>
</g>
</svg>
